<?xml version="1.0" encoding="utf-8"?>
<!-- Generator: Adobe Illustrator 25.2.0, SVG Export Plug-In . SVG Version: 6.00 Build 0)  -->
<svg version="1.1" id="Layer_1" xmlns="http://www.w3.org/2000/svg" xmlns:xlink="http://www.w3.org/1999/xlink" x="0px" y="0px"
	 viewBox="0 0 464.8 464.8" style="enable-background:new 0 0 464.8 464.8;" xml:space="preserve">
<path d="M396.8,68C306-22.7,158.8-22.7,68,68s-90.7,238,0,328.7s238,90.7,328.7,0C487.5,306,487.5,158.2,396.8,68L396.8,68z
	 M338,245.6c-3.4,3.4-8.4,5.6-13.4,5.6h-72.8V324c0,5-2.2,10.1-5.6,13.4c-3.4,3.4-8.4,5.6-13.4,5.6c-10.6,0-19-8.4-19-19v-72.8
	h-72.8c-10.6,0-19-8.4-19-19c0-10.6,8.4-19,19-19h72.8v-72.8c0-10.6,8.4-19,19-19s19,8.4,19,19v72.8h72.8c10.6,0,19,8.4,19,19
	C343,237.2,341.3,242.2,338,245.6L338,245.6z"/>
</svg>
