<?xml version="1.0" encoding="utf-8"?>
<!-- Generator: Adobe Illustrator 25.2.0, SVG Export Plug-In . SVG Version: 6.00 Build 0)  -->
<svg version="1.1" id="Layer_1" xmlns="http://www.w3.org/2000/svg" xmlns:xlink="http://www.w3.org/1999/xlink" x="0px" y="0px"
	 viewBox="0 0 372.7 372.7" style="enable-background:new 0 0 372.7 372.7;" xml:space="preserve">
<path d="M137.8,33.6v138.9c0,8.9-3.5,17.5-9.8,23.8c-6.3,6.3-14.8,9.8-23.8,9.8H33.6c-8.9,0-17.5-3.5-23.8-9.8
	C3.5,189.9,0,181.4,0,172.5V33.6c0-8.9,3.5-17.5,9.8-23.8C16.1,3.5,24.7,0,33.6,0h70.6c8.9,0,17.5,3.5,23.8,9.8
	C134.2,16.1,137.8,24.7,137.8,33.6z M104.2,231.6H33.6c-8.9,0-17.5,3.5-23.8,9.8C3.5,247.8,0,256.3,0,265.2v73.9
	c0,8.9,3.5,17.5,9.8,23.8c6.3,6.3,14.8,9.8,23.8,9.8h70.6c8.9,0,17.5-3.5,23.8-9.8c6.3-6.3,9.8-14.8,9.8-23.8v-73.9
	c0-8.9-3.5-17.5-9.8-23.8C121.6,235.2,113.1,231.6,104.2,231.6L104.2,231.6z M339.1,149l-142.2,0c-8.9,0-17.5,3.5-23.8,9.8
	c-6.3,6.3-9.8,14.8-9.8,23.8v156.6c0,8.9,3.5,17.5,9.8,23.8c6.3,6.3,14.8,9.8,23.8,9.8h142.2c8.9,0,17.5-3.5,23.8-9.8
	c6.3-6.3,9.8-14.8,9.8-23.8V182.6c0-8.9-3.5-17.5-9.8-23.8C356.6,152.5,348,149,339.1,149L339.1,149z M339.1,0L196.9,0
	c-8.9,0-17.5,3.5-23.8,9.8c-6.3,6.3-9.8,14.8-9.8,23.8v56.2c0,8.9,3.5,17.5,9.8,23.8c6.3,6.3,14.8,9.8,23.8,9.8h142.2
	c8.9,0,17.5-3.5,23.8-9.8c6.3-6.3,9.8-14.8,9.8-23.8V33.6c0-8.9-3.5-17.5-9.8-23.8C356.6,3.5,348,0,339.1,0L339.1,0z"/>
</svg>
