<?xml version="1.0" encoding="utf-8"?>
<!-- Generator: Adobe Illustrator 25.2.0, SVG Export Plug-In . SVG Version: 6.00 Build 0)  -->
<svg version="1.1" id="Layer_1" xmlns="http://www.w3.org/2000/svg" xmlns:xlink="http://www.w3.org/1999/xlink" x="0px" y="0px"
	 viewBox="0 0 256.7 70" style="enable-background:new 0 0 256.7 70;" xml:space="preserve">
<g>
	<path d="M70,35c0,19.3-15.7,35-35,35C15.7,70,0,54.3,0,35S15.7,0,35,0C54.3,0,70,15.7,70,35z"/>
	<path d="M163.3,35c0,19.3-15.7,35-35,35s-35-15.7-35-35s15.7-35,35-35S163.3,15.7,163.3,35z"/>
	<path d="M256.7,35c0,19.3-15.7,35-35,35c-19.3,0-35-15.7-35-35s15.7-35,35-35C241,0,256.7,15.7,256.7,35z"/>
</g>
</svg>
