<?xml version="1.0" encoding="utf-8"?>
<!-- Generator: Adobe Illustrator 25.2.0, SVG Export Plug-In . SVG Version: 6.00 Build 0)  -->
<svg version="1.1" id="Layer_1" xmlns="http://www.w3.org/2000/svg" xmlns:xlink="http://www.w3.org/1999/xlink" x="0px" y="0px"
	 viewBox="0 0 490.1 323.2" style="enable-background:new 0 0 490.1 323.2;" xml:space="preserve">
<path d="M181.6,90.1h28.7h68.3h82.6H433c11.5,0,23.1,0.2,34.7,0h0.5c11.4,0,22.4-10.1,21.9-21.9c-0.5-11.9-9.6-21.9-21.9-21.9h-28.7
	h-68.3h-82.6h-71.9c-11.5,0-23.1-0.2-34.7,0h-0.5c-11.4,0-22.4,10.1-21.9,21.9C160.2,80.1,169.3,90.1,181.6,90.1L181.6,90.1z"/>
<path d="M21.9,90.1h59.4h8.4c11.4,0,22.4-10.1,21.9-21.9C111,56.3,102,46.3,89.7,46.3H30.3h-8.4C10.5,46.3-0.5,56.4,0,68.2
	C0.6,80.1,9.6,90.1,21.9,90.1L21.9,90.1z"/>
<path d="M135.6,92.3c-2,0-4-0.2-6.1-0.4c1.9,0.3,3.9,0.5,5.8,0.8c-4.2-0.6-8.1-1.7-12-3.3c1.8,0.7,3.5,1.5,5.2,2.2
	c-3.6-1.5-6.8-3.5-9.9-5.8c1.5,1.1,3,2.3,4.4,3.4c-3.2-2.5-6.1-5.4-8.6-8.6c1.1,1.5,2.3,3,3.4,4.4c-2.4-3.1-4.3-6.4-5.8-9.9
	c0.7,1.8,1.5,3.5,2.2,5.2c-1.6-3.9-2.7-7.9-3.3-12c0.3,1.9,0.5,3.9,0.8,5.8c-0.5-4-0.5-8.1,0-12.1c-0.3,1.9-0.5,3.9-0.8,5.8
	c0.6-4.2,1.7-8.1,3.3-12c-0.7,1.8-1.5,3.5-2.2,5.2c1.5-3.6,3.5-6.8,5.8-9.9c-1.1,1.5-2.3,3-3.4,4.4c2.5-3.2,5.4-6.1,8.6-8.6
	c-1.5,1.1-3,2.3-4.4,3.4c3.1-2.4,6.4-4.3,9.9-5.8c-1.7,0.7-3.5,1.5-5.2,2.2c3.9-1.6,7.9-2.7,12-3.3c-1.9,0.3-3.9,0.5-5.8,0.8
	c4-0.5,8.1-0.5,12.1,0c-1.9-0.3-3.9-0.5-5.8-0.8c4.2,0.6,8.1,1.7,12,3.3c-1.8-0.7-3.5-1.5-5.2-2.2c3.6,1.5,6.8,3.5,9.9,5.8
	c-1.5-1.1-3-2.3-4.4-3.4c3.2,2.5,6.1,5.4,8.6,8.6c-1.1-1.5-2.3-3-3.4-4.4c2.4,3.1,4.3,6.4,5.8,9.9c-0.7-1.8-1.5-3.5-2.2-5.2
	c1.6,3.9,2.7,7.9,3.3,12c-0.3-1.9-0.5-3.9-0.8-5.8c0.5,4,0.5,8.1,0,12.1c0.3-1.9,0.5-3.9,0.8-5.8c-0.6,4.2-1.7,8.1-3.3,12
	c0.7-1.8,1.5-3.5,2.2-5.2c-1.5,3.6-3.5,6.8-5.8,9.9c1.1-1.5,2.3-3,3.4-4.4c-2.5,3.2-5.4,6.1-8.6,8.6c1.5-1.1,3-2.3,4.4-3.4
	c-3.1,2.4-6.4,4.3-9.9,5.8c1.8-0.7,3.5-1.5,5.2-2.2c-3.9,1.6-7.9,2.7-12,3.3c1.9-0.3,3.9-0.5,5.8-0.8
	C139.7,92.2,137.7,92.3,135.6,92.3c-5.6,0.1-11.5,2.4-15.5,6.4c-3.8,3.8-6.7,10-6.4,15.5c0.5,11.8,9.6,22,21.9,21.9
	c13.2-0.1,27.1-3.9,37.9-11.6c7.1-5.1,12.4-10.3,17.6-17.3c3.9-5.2,6.6-11,8.8-17.2c4.7-12.6,4.8-27.5,1.1-40.3
	c-3.5-12.4-10.8-24.6-20.8-32.8c-6.7-5.5-13-9.2-21.1-12.5c-6.2-2.5-12.9-3.6-19.7-4.2c-13.2-1.1-27.5,2.6-38.8,9.5
	c-11,6.7-20.7,16.7-26.1,28.5c-1.7,3.7-3.3,7.5-4.4,11.4c-1.1,4-1.6,8.2-2.1,12.4c-0.8,7-0.1,14,1.3,20.9
	C72,96.6,80.2,110.4,91,119.3c7.1,5.8,13.8,9.7,22.4,13c7,2.7,14.8,3.7,22.3,3.8c11.4,0.1,22.4-10.1,21.9-21.9
	C157,102.3,147.9,92.4,135.6,92.3L135.6,92.3z"/>
<path d="M394.9,277.1h64.3h9c11.4,0,22.4-10.1,21.9-21.9c-0.5-11.9-9.6-21.9-21.9-21.9h-64.3h-9c-11.4,0-22.4,10.1-21.9,21.9
	C373.5,267.1,382.6,277.1,394.9,277.1L394.9,277.1z"/>
<path d="M21.9,277.1H50h66.9h81.2h70.2c11.4,0,22.8,0.2,34.1,0h0.5c11.4,0,22.4-10.1,21.9-21.9c-0.5-11.9-9.6-21.9-21.9-21.9h-28.1
	h-66.9h-81.2H56.5c-11.4,0-22.8-0.2-34.1,0h-0.5c-11.4,0-22.4,10.1-21.9,21.9C0.6,267.1,9.6,277.1,21.9,277.1L21.9,277.1z"/>
<path d="M348.9,279.4c-2,0-4-0.2-6.1-0.4c1.9,0.3,3.9,0.5,5.8,0.8c-4.2-0.6-8.1-1.7-12-3.3c1.8,0.7,3.5,1.5,5.2,2.2
	c-3.6-1.5-6.8-3.5-9.9-5.8c1.5,1.1,3,2.3,4.4,3.4c-3.2-2.5-6.1-5.4-8.6-8.6c1.1,1.5,2.3,3,3.4,4.4c-2.4-3.1-4.3-6.4-5.8-9.9
	c0.7,1.8,1.5,3.5,2.2,5.2c-1.6-3.9-2.7-7.9-3.3-12c0.3,1.9,0.5,3.9,0.8,5.8c-0.5-4-0.5-8.1,0-12.1c-0.3,1.9-0.5,3.9-0.8,5.8
	c0.6-4.2,1.7-8.1,3.3-12c-0.7,1.8-1.5,3.5-2.2,5.2c1.5-3.6,3.5-6.8,5.8-9.9c-1.1,1.5-2.3,3-3.4,4.4c2.5-3.2,5.4-6.1,8.6-8.6
	c-1.5,1.1-3,2.3-4.4,3.4c3.1-2.4,6.4-4.3,9.9-5.8c-1.8,0.7-3.5,1.5-5.2,2.2c3.9-1.6,7.9-2.7,12-3.3c-1.9,0.3-3.9,0.5-5.8,0.8
	c4-0.5,8.1-0.5,12.1,0c-1.9-0.3-3.9-0.5-5.8-0.8c4.2,0.6,8.1,1.7,12,3.3c-1.8-0.7-3.5-1.5-5.2-2.2c3.6,1.5,6.8,3.5,9.9,5.8
	c-1.5-1.1-3-2.3-4.4-3.4c3.2,2.5,6.1,5.4,8.6,8.6c-1.1-1.5-2.3-3-3.4-4.4c2.4,3.1,4.3,6.4,5.8,9.9c-0.7-1.8-1.5-3.5-2.2-5.2
	c1.6,3.9,2.7,7.9,3.3,12c-0.3-1.9-0.5-3.9-0.8-5.8c0.5,4,0.5,8.1,0,12.1c0.3-1.9,0.5-3.9,0.8-5.8c-0.6,4.2-1.7,8.1-3.3,12
	c0.7-1.8,1.5-3.5,2.2-5.2c-1.5,3.6-3.5,6.8-5.8,9.9c1.1-1.5,2.3-3,3.4-4.4c-2.5,3.2-5.4,6.1-8.6,8.6c1.5-1.1,3-2.3,4.4-3.4
	c-3.1,2.4-6.4,4.3-9.9,5.8c1.8-0.7,3.5-1.5,5.2-2.2c-3.9,1.6-7.9,2.7-12,3.3c1.9-0.3,3.9-0.5,5.8-0.8
	C353,279.2,350.9,279.4,348.9,279.4c-5.6,0.1-11.5,2.4-15.5,6.4c-3.8,3.8-6.7,10-6.4,15.5c0.5,11.8,9.6,22,21.9,21.9
	c13.2-0.1,27.1-3.9,37.9-11.6c7.1-5.1,12.4-10.3,17.6-17.3c3.9-5.2,6.6-11,8.8-17.2c4.7-12.6,4.8-27.5,1.1-40.3
	c-3.5-12.4-10.8-24.6-20.8-32.8c-6.7-5.5-13-9.2-21.1-12.5c-6.3-2.5-13-3.6-19.8-4.2c-13.2-1.1-27.5,2.6-38.8,9.5
	c-11,6.7-20.7,16.7-26.1,28.5c-1.7,3.7-3.3,7.5-4.4,11.4c-1.1,4-1.6,8.2-2.1,12.4c-0.8,7-0.1,14,1.3,20.9
	c2.7,13.7,10.9,27.5,21.7,36.4c7.1,5.8,13.8,9.7,22.4,13c7,2.7,14.8,3.7,22.3,3.8c11.4,0.1,22.4-10.1,21.9-21.9
	C370.3,289.3,361.2,279.5,348.9,279.4L348.9,279.4z"/>
</svg>
