<?xml version="1.0" encoding="utf-8"?>
<!-- Generator: Adobe Illustrator 25.2.0, SVG Export Plug-In . SVG Version: 6.00 Build 0)  -->
<svg version="1.1" id="Layer_1" xmlns="http://www.w3.org/2000/svg" xmlns:xlink="http://www.w3.org/1999/xlink" x="0px" y="0px"
	 viewBox="0 0 551.3 446.2" style="enable-background:new 0 0 551.3 446.2;" xml:space="preserve">
<path d="M506.3,0h-94.2c-12.9,0-23.3,10.4-23.3,23.1v4.8H58.7c-12.9,0-23.3,10.4-23.3,23.1v14.1h0c-9.9,0-19.4,4.1-26.1,11.3
	C2.6,83.7-0.6,93,0.1,102.7l23.7,311.6c1.4,17.9,16.7,32,34.9,32h438.2c18.2,0,33.5-14,34.9-32l19.4-255.7c0.7-9.7-2.5-19-9.2-26.2
	c-3.5-3.8-7.7-6.7-12.4-8.6V23.1C529.6,10.4,519.1,0,506.3,0L506.3,0z M44.1,51c0-7.9,6.5-14.3,14.6-14.3h334.4c2.4,0,4.4-2,4.4-4.4
	v-9.2c0-7.9,6.5-14.3,14.6-14.3h94.2c8.1,0,14.6,6.4,14.6,14.3v98.3c-1.6-0.2-3.3-0.4-4.9-0.4h-71.2v-20.9
	c0-19.2-15.8-34.9-35.3-34.9H44.1L44.1,51z M535.6,138.3c5,5.4,7.4,12.3,6.9,19.6L523,413.6c-1,13.4-12.5,23.9-26.2,23.9H58.7
	c-13.6,0-25.1-10.5-26.2-23.9L8.8,102c-0.6-7.3,1.9-14.2,6.9-19.6c5-5.4,12.2-8.5,19.6-8.5h374c14.7,0,26.6,11.7,26.6,26.2v25.3
	c0,2.4,2,4.4,4.4,4.4h75.6C523.4,129.8,530.5,132.9,535.6,138.3L535.6,138.3z"/>
</svg>
