<?xml version="1.0" encoding="utf-8"?>
<!-- Generator: Adobe Illustrator 25.2.0, SVG Export Plug-In . SVG Version: 6.00 Build 0)  -->
<svg version="1.1" id="Layer_1" xmlns="http://www.w3.org/2000/svg" xmlns:xlink="http://www.w3.org/1999/xlink" x="0px" y="0px"
	 viewBox="0 0 430.7 509" style="enable-background:new 0 0 430.7 509;" xml:space="preserve">
<path d="M217.7,509c56.8-0.9,111-24.1,150.9-64.6c39.9-40.5,62.2-95.1,62.2-151.9c0-56.8-22.3-111.4-62.2-151.9
	c-39.9-40.5-94-63.7-150.9-64.6h-2.8l0-75.9L68.6,117l146.3,117v-75.9h2.8h0c34.9,0,68.5,13.6,93.5,37.9
	c25.1,24.3,39.7,57.4,40.8,92.3c1.1,34.9-11.5,68.9-35,94.7c-23.5,25.8-56.1,41.5-91,43.6c-34.9,2.2-69.2-9.3-95.7-32
	c-26.5-22.7-43.2-54.8-46.5-89.6l-1.9-20.3l-81.9,0l1.8,24.1C6.1,363.1,30.7,413.9,70.7,451C110.7,488.1,163.1,508.8,217.7,509
	L217.7,509z"/>
</svg>
