<?xml version="1.0" encoding="utf-8"?>
<!-- Generator: Adobe Illustrator 25.2.0, SVG Export Plug-In . SVG Version: 6.00 Build 0)  -->
<svg version="1.1" id="Layer_1" xmlns="http://www.w3.org/2000/svg" xmlns:xlink="http://www.w3.org/1999/xlink" x="0px" y="0px"
	 viewBox="0 0 560 525.1" style="enable-background:new 0 0 560 525.1;" xml:space="preserve">
<path d="M227.5,210.1c0,24.2-11.8,43.8-26.2,43.8S175,234.3,175,210.1s11.8-43.8,26.2-43.8S227.5,186,227.5,210.1"/>
<path d="M385,210.1c0,24.2-11.8,43.8-26.2,43.8c-14.5,0-26.2-19.6-26.2-43.8s11.8-43.8,26.2-43.8C373.3,166.4,385,186,385,210.1"/>
<path d="M90.9,464.7c-25.5-10.8-29.7-34.9-29.7-88.4c0-8.3,0.3-17,0.9-25.6c0.3-4.8-3.3-9-8.1-9.4c-4.8-0.3-9,3.3-9.4,8.1
	c-0.6,9.1-0.9,18.1-0.9,26.9c0,51.2,2.9,88.7,40.3,104.5c2.1,1,4.6,1,6.8,0.2c2.2-0.9,4-2.6,4.9-4.7c0.9-2.2,0.9-4.6,0-6.8
	S93.1,465.6,90.9,464.7L90.9,464.7z"/>
<path d="M506,341.4c-2.3,0.2-4.5,1.2-6,3c-1.5,1.8-2.3,4-2.1,6.4c0.6,8.7,0.9,17.3,0.9,25.6c0,53.5-4.1,77.6-29.7,88.4v0
	c-4.3,2-6.3,7-4.4,11.4c1.9,4.4,6.9,6.5,11.3,4.7c37.5-15.8,40.4-53.3,40.4-104.5c0-8.8-0.3-17.8-0.9-26.9
	C515,344.7,510.8,341.1,506,341.4L506,341.4z"/>
<path d="M560,175.1c0-27,0-77.2-51.1-87.4c-43.1-7.2-61.1-20.4-64.6-23.3C438.6,55,402.5,0.1,341.3,0.1c-20.7-0.8-41.4,2-61.2,8.1
	c-19.8-6.1-40.5-8.8-61.2-8.1c-61.2,0-97.2,54.8-103.1,64.3c-3.6,2.9-21.8,16.1-64.9,23.3C0,98,0,148.2,0,175.1
	c1.1,13.4,5.4,26.3,12.7,37.6c12.9,24.6,27.6,52.4,5.4,107.9c-1,2.4-0.8,5.1,0.4,7.4c1.2,2.3,3.4,3.9,5.9,4.4
	c2,0.4,49.4,9.1,95.9-46.7c1.2-1.5,1.9-3.3,2-5.2l5.5-131.3c0.2-4.8-3.5-8.9-8.3-9.1c-2.3-0.2-4.6,0.6-6.4,2.2s-2.7,3.8-2.8,6.1
	l-5.3,128.3c-26.7,31-52.5,37.7-66.5,38.8c18.7-55.7,2-87.4-10.4-111v0c-5.8-8.9-9.4-18.9-10.7-29.4c0-33.1,2.8-63.4,36.4-70.1
	c54.6-9.1,73.9-27.9,74.7-28.7c0.6-0.6,1-1.2,1.4-1.8c0.3-0.6,33.1-56.8,88.7-56.8c40.5,0,57.2,7.8,57.3,7.8c2.5,1.2,5.4,1.2,7.8,0
	c0.2-0.1,16.8-7.8,57.3-7.8c55.3,0,88.3,56.3,88.7,56.9c0.4,0.7,0.9,1.3,1.4,1.8c0.8,0.8,20.1,19.6,74.5,28.6
	c33.9,6.8,36.8,37.1,36.8,70.2c-1.2,10.5-4.9,20.6-10.7,29.4c-20.8,33.3-24.7,74.4-10.4,111c-14-1.1-39.8-7.8-66.5-38.8l-5.3-128.3
	v0c0-2.3-1-4.6-2.8-6.2c-1.7-1.6-4-2.4-6.4-2.2c-4.8,0.2-8.6,4.3-8.4,9.1l5.5,131.3c0.1,1.9,0.8,3.8,2,5.2
	c34.9,41.9,70.3,47.4,86.6,47.4c3.1,0.1,6.3-0.2,9.3-0.7c2.5-0.5,4.7-2.1,6-4.4c1.2-2.3,1.4-5,0.4-7.4
	c-22.2-55.5-7.5-83.3,5.4-107.9C554.6,201.4,558.9,188.5,560,175.1L560,175.1z"/>
<path d="M413.3,296.9c-29.6-22.5-65.9-20.9-93.4-14.4l0,0c-8.9-13.2-24.1-20.7-40-19.8c-15.9-0.9-31.1,6.6-40,19.8
	c-27.5-6.4-63.8-8.1-93.4,14.4c-33.4,25.4-50.4,75.7-50.4,149.5c0,50.8,31.1,78.7,87.5,78.7c13.1-0.3,26-3,38.1-8
	c4.5-1.7,6.8-6.8,5.1-11.3c-1.7-4.5-6.8-6.8-11.3-5.1c-10.1,4.2-20.9,6.5-31.9,6.8c-47.1,0-70-20-70-61.2
	c0-68,14.6-113.6,43.5-135.5c24.4-18.5,55.4-16.9,79.1-11.3c0.6,22.6,12.6,45,34.9,49.6v43.7c-1.2,5-9.6,36-35,36
	c-9.4,0.4-18.5-3.2-25.2-9.8c-6.6-6.6-10.2-15.8-9.8-25.2c0-4.8-3.9-8.8-8.8-8.8s-8.8,3.9-8.8,8.8c-0.5,14.1,4.8,27.7,14.8,37.7
	c10,10,23.6,15.3,37.7,14.8v35c0,15.6,8.3,30.1,21.9,37.9c13.5,7.8,30.2,7.8,43.8,0c13.5-7.8,21.9-22.3,21.9-37.9v-35
	c14.1,0.5,27.7-4.8,37.7-14.8c10-10,15.3-23.6,14.8-37.7c0-4.8-3.9-8.8-8.8-8.8c-4.8,0-8.8,3.9-8.8,8.8c0,1.4-0.4,35-35,35
	c-25.5,0-33.8-30.6-35-36v-43.8c22.4-4.7,34.3-27,34.9-49.6c23.7-5.6,54.7-7.3,79.1,11.3c28.9,21.9,43.5,67.6,43.5,135.6
	c0,41.2-22.9,61.2-70,61.2c-10.9-0.3-21.7-2.7-31.9-6.8c-4.5-1.7-9.6,0.5-11.3,5.1c-1.7,4.5,0.5,9.6,5.1,11.3
	c12.1,4.9,25,7.6,38.1,8c56.4,0,87.5-28,87.5-78.7C463.8,372.6,446.8,322.3,413.3,296.9L413.3,296.9z M306.3,442.8v38.6
	c0,9.4-5,18-13.1,22.7c-8.1,4.7-18.1,4.7-26.2,0c-8.1-4.7-13.1-13.4-13.1-22.7v-38.6c11.2-5.1,20.5-13.8,26.2-24.7
	C285.8,429,295,437.7,306.3,442.8z M280,332.6c-20.8,0-26.2-22.9-26.2-35c0-13.8,17.2-17.5,26.2-17.5c9.1,0,26.2,3.7,26.2,17.5
	C306.3,309.7,300.8,332.6,280,332.6z"/>
<path d="M271.3,446.4v35c0,4.8,3.9,8.8,8.8,8.8c4.8,0,8.8-3.9,8.8-8.8v-35c0-4.8-3.9-8.8-8.8-8.8
	C275.2,437.6,271.3,441.5,271.3,446.4z"/>
<path d="M183.8,332.6h17.5v17.5h-17.5V332.6z"/>
<path d="M210,358.9h17.5v17.5H210V358.9z"/>
<path d="M157.5,358.9H175v17.5h-17.5V358.9z"/>
<path d="M358.8,332.6h17.5v17.5h-17.5V332.6z"/>
<path d="M385,358.9h17.5v17.5H385V358.9z"/>
<path d="M332.5,358.9H350v17.5h-17.5V358.9z"/>
<path d="M243.7,139.7c2.2-6.6,1.7-13.8-1.4-20c-3.1-6.2-8.6-11-15.2-13.2L174.5,89c-6.6-2.2-13.8-1.7-20.1,1.4
	c-6.2,3.1-11,8.6-13.2,15.2c-2.2,6.6-1.7,13.8,1.4,20.1c3.1,6.2,8.6,11,15.2,13.2l52.5,17.5c6.6,2.2,13.8,1.7,20.1-1.4
	C236.7,151.8,241.5,146.3,243.7,139.7L243.7,139.7z M227,134.1c-1.6,4.5-6.5,7-11.1,5.5l-52.5-17.5c-4.1-1.4-6.5-5.5-5.8-9.7
	c0.7-4.2,4.4-7.3,8.6-7.3c0.9,0,1.9,0.2,2.8,0.5l52.5,17.5C226.1,124.6,228.6,129.6,227,134.1L227,134.1z"/>
<path d="M418.6,105.6c-2.2-6.6-6.9-12.1-13.2-15.2c-6.2-3.1-13.4-3.6-20-1.4l-52.5,17.5c-6.7,2.2-12.2,6.9-15.3,13.1
	c-3.2,6.2-3.7,13.5-1.5,20.1c2.2,6.6,7,12.1,13.3,15.2c6.3,3.1,13.5,3.6,20.1,1.3l52.5-17.5c6.6-2.2,12-6.9,15.1-13.2
	C420.3,119.4,420.8,112.2,418.6,105.6L418.6,105.6z M396.5,122.2L344,139.7c-4.6,1.4-9.5-1-11-5.5c-1.5-4.6,0.9-9.5,5.5-11.1
	l52.5-17.5c4.6-1.5,9.5,1,11.1,5.6C403.6,115.7,401.1,120.7,396.5,122.2L396.5,122.2z"/>
</svg>
