<?xml version="1.0" encoding="utf-8"?>
<!-- Generator: Adobe Illustrator 25.2.0, SVG Export Plug-In . SVG Version: 6.00 Build 0)  -->
<svg version="1.1" id="Layer_1" xmlns="http://www.w3.org/2000/svg" xmlns:xlink="http://www.w3.org/1999/xlink" x="0px" y="0px"
	 viewBox="0 0 441.8 399.4" style="enable-background:new 0 0 441.8 399.4;" xml:space="preserve">
<path d="M22.4,399.4h358.4c12.3,0,22.4-10.1,22.4-22.4l0-133.8c0-6.2-5-11.2-11.2-11.2c-6.2,0-11.2,5-11.2,11.2l0,133.8H22.4v-257
	h72.8c6.2,0,11.2-5,11.2-11.2s-5-11.2-11.2-11.2l-72.8,0C10.1,97.5,0,107.6,0,119.9v257C0,389.3,10.1,399.4,22.4,399.4L22.4,399.4z"
	/>
<path d="M308,1.8c-6.7,2.8-11.2,9.5-11.2,16.8v51.5C101.4,88,85.1,194.4,84.6,199.5c-4.5,33.6-1.1,115.9,117,154.6
	c1.1,0.6,2.8,0.6,3.9,0.6c5,0,9.5-2.8,11.8-7.8c2.8-6.2,0.6-12.9-5.6-16.2c-26.3-15.1-42-32.5-45.9-52.6
	c-5.6-26.9,11.2-49.8,11.8-51c31.9-40.3,95.2-45.4,119.3-45.9v44.2c0,7.3,4.5,14,11.2,16.8c6.7,2.8,14.6,1.1,20.2-3.9l108.1-105.8
	c3.4-3.4,5.6-8.4,5.6-13.4c0-5-2.2-10.1-5.6-13.4L328.2,4.6C322.6,0.1,314.7-1.6,308,1.8L308,1.8z M319.2,215.7v-39.2
	c0-10.1-8.4-18.5-18.5-18.5c-23,0-100.8,3.9-141.1,54.3l-0.6,1.1c-3.4,4.5-22.4,33-15.7,67.8c1.7,7.3,3.9,14.6,7.8,21.3
	c-27.4-20.7-50.4-52.6-44.2-101.4c0-1.1,14.6-94.6,196-109.8c9.5-0.6,16.8-9,16.8-18.5V27l98.6,91.8L319.2,215.7z"/>
</svg>
