<?xml version="1.0" encoding="utf-8"?>
<!-- Generator: Adobe Illustrator 25.2.0, SVG Export Plug-In . SVG Version: 6.00 Build 0)  -->
<svg version="1.1" id="Layer_1" xmlns="http://www.w3.org/2000/svg" xmlns:xlink="http://www.w3.org/1999/xlink" x="0px" y="0px"
	 viewBox="0 0 46.7 280" style="enable-background:new 0 0 46.7 280;" xml:space="preserve">
<g>
	<path d="M46.7,23.3c0,12.9-10.4,23.3-23.3,23.3S0,36.2,0,23.3S10.4,0,23.3,0S46.7,10.4,46.7,23.3"/>
	<path d="M46.7,140c0,12.9-10.4,23.3-23.3,23.3S0,152.9,0,140s10.4-23.3,23.3-23.3S46.7,127.1,46.7,140"/>
	<path d="M46.7,256.7c0,12.9-10.4,23.3-23.3,23.3S0,269.6,0,256.7c0-12.9,10.4-23.3,23.3-23.3S46.7,243.8,46.7,256.7"/>
</g>
</svg>
