<?xml version="1.0" encoding="utf-8"?>
<!-- Generator: Adobe Illustrator 25.2.0, SVG Export Plug-In . SVG Version: 6.00 Build 0)  -->
<svg version="1.1" id="Layer_1" xmlns="http://www.w3.org/2000/svg" xmlns:xlink="http://www.w3.org/1999/xlink" x="0px" y="0px"
	 viewBox="0 0 490 525" style="enable-background:new 0 0 490 525;" xml:space="preserve">
<g>
	<path d="M472.5,70h-140V52.5c0-13.9-5.6-27.3-15.4-37.1C307.3,5.6,293.9,0,280,0h-70c-13.9,0-27.3,5.6-37.1,15.4
		c-9.8,9.8-15.4,23.2-15.4,37.1V70h-140c-6.3,0-12,3.3-15.2,8.8s-3.1,12.1,0,17.5s8.9,8.8,15.2,8.8h36.4l31,371.9
		c1.2,13.1,7.2,25.3,16.8,34.2c9.7,8.9,22.3,13.9,35.5,13.9h215.6c13.1-0.1,25.8-5,35.5-13.9c9.7-8.9,15.7-21.1,16.8-34.2l31-371.9
		h36.4c6.3,0,12-3.3,15.2-8.8s3.1-12.1,0-17.5S478.8,70,472.5,70L472.5,70z M192.5,52.5c0-4.6,1.9-9.1,5.1-12.4S205.4,35,210,35h70
		c4.6,0,9.1,1.9,12.4,5.1s5.1,7.7,5.1,12.4V70h-105L192.5,52.5z M370.2,474c-0.4,4.4-2.4,8.4-5.6,11.4c-3.2,3-7.4,4.6-11.8,4.7
		H137.2c-4.4,0-8.6-1.7-11.8-4.6c-3.2-3-5.2-7-5.6-11.4L89,105h312L370.2,474z"/>
	<path d="M192.5,175c-4.6,0-9.1,1.8-12.4,5.1s-5.1,7.7-5.1,12.4v210c0,6.3,3.3,12,8.8,15.2s12.1,3.1,17.5,0s8.8-8.9,8.8-15.2v-210
		c0-4.6-1.8-9.1-5.1-12.4S197.1,175,192.5,175z"/>
	<path d="M297.5,175c-4.6,0-9.1,1.8-12.4,5.1s-5.1,7.7-5.1,12.4v210c0,6.3,3.3,12,8.8,15.2s12.1,3.1,17.5,0s8.8-8.9,8.8-15.2v-210
		c0-4.6-1.8-9.1-5.1-12.4S302.1,175,297.5,175z"/>
</g>
</svg>
