<?xml version="1.0" encoding="utf-8"?>
<!-- Generator: Adobe Illustrator 25.2.0, SVG Export Plug-In . SVG Version: 6.00 Build 0)  -->
<svg version="1.1" id="Layer_1" xmlns="http://www.w3.org/2000/svg" xmlns:xlink="http://www.w3.org/1999/xlink" x="0px" y="0px"
	 viewBox="0 0 460.2 559.9" style="enable-background:new 0 0 460.2 559.9;" xml:space="preserve">
<g>
	<path d="M460.1,107.8c0.6-4-1.7-8-5.6-9.3c-73.1-32.3-146-64.7-218.7-97.2c-3.3-1.7-7.3-1.7-10.6,0C152,34,78.8,66.5,5.7,98.7
		c-3.7,1-6.1,4.5-5.6,8.3c0.5,49.8-0.1,99.7,0.5,149.6c0.1,16.3,1.4,32.6,4,48.8c8.2,51.4,28.7,100,59.8,141.6
		c39.8,53.6,90.6,91.9,155,111.3c7,2.2,14.4,2.2,21.4,0c59.5-17.8,111.8-54,149.2-103.5c45.6-57.3,70.3-128.4,70-201.6v-64.6
		C459.8,161.6,459.8,134.7,460.1,107.8L460.1,107.8z M420.9,204.1v53.6h0c0.3,60.8-20.2,119.8-58,167.3
		c-31.1,41.1-74.5,71.2-123.9,86c-5.8,1.8-12,1.8-17.8,0c-52-15.7-97.3-48.2-128.8-92.4c-25.9-34.6-42.9-74.9-49.7-117.6
		c-2-13.4-3-27-2.9-40.5c-0.4-41.4,0-82.8,0-124.2c-0.4-3.1,1.5-6,4.5-6.9c60.4-26.9,121-53.9,181.5-80.9c2.8-1.4,6-1.4,8.8,0
		c60.5,27,121,53.9,181.7,80.8c3.3,1,5.3,4.3,4.8,7.7c-0.2,22.3-0.1,44.7-0.1,67.1L420.9,204.1z"/>
	<path d="M384.8,154.7c-50.4-22.4-100.8-44.8-151.2-67.2c-1.1-0.5-2.3-0.7-3.5-0.7V280H388c0.5-6.1,0.7-12.2,0.8-18.5v-44.8v-56
		C389.1,158,387.4,155.5,384.8,154.7L384.8,154.7z"/>
	<path d="M74.4,297.5c5.7,35.4,19.8,69,41.3,97.7c26.2,36.7,63.8,63.7,107,76.8c2.4,0.8,4.9,1.2,7.4,1.2V280H72.3
		C72.8,285.6,73.4,291.7,74.4,297.5L74.4,297.5z"/>
</g>
</svg>
