<?xml version="1.0" encoding="utf-8"?>
<!-- Generator: Adobe Illustrator 25.2.0, SVG Export Plug-In . SVG Version: 6.00 Build 0)  -->
<svg version="1.1" id="Layer_1" xmlns="http://www.w3.org/2000/svg" xmlns:xlink="http://www.w3.org/1999/xlink" x="0px" y="0px"
	 viewBox="0 0 561.2 560.3" style="enable-background:new 0 0 561.2 560.3;" xml:space="preserve">
<path d="M233.6,465c-46,0.2-91.1-13.2-129.5-38.7S35.8,364.7,18,322.2C0.2,279.7-4.5,232.9,4.3,187.8S35.3,101,67.8,68.4
	c32.5-32.6,73.9-54.9,119.1-63.9c45.1-9,92-4.5,134.5,13.1c42.5,17.6,78.9,47.4,104.5,85.7c25.6,38.3,39.2,83.3,39.2,129.4
	c0,61.5-24.3,120.4-67.7,163.9C353.9,440.2,295.1,464.8,233.6,465L233.6,465z M233.6,45c-37.2-0.2-73.5,10.6-104.6,31.1
	c-31,20.5-55.2,49.7-69.6,84c-14.4,34.3-18.3,72-11.1,108.5c7.1,36.5,24.9,70,51.1,96.4c26.2,26.4,59.6,44.3,96.1,51.7
	c36.4,7.3,74.2,3.7,108.6-10.5c34.4-14.2,63.7-38.2,84.4-69.1c20.7-30.9,31.7-67.2,31.7-104.4c0.1-49.6-19.5-97.2-54.4-132.4
	C330.7,65.1,283.2,45.2,233.6,45L233.6,45z"/>
<path d="M358.6,376.4l19.8-19.8L498.9,477l-19.8,19.8L358.6,376.4z"/>
<path d="M461.5,403.9l89.3,89.3c15.4,15.4,12.4,43.1,0,55.6c-15.4,15.4-40.2,15.4-55.6,0l-89.3-89.3c-15.4-15.4-12.4-43.1,0-55.6
	C421.2,388.5,446.1,388.5,461.5,403.9L461.5,403.9z"/>
</svg>
