<?xml version="1.0" encoding="utf-8"?>
<!-- Generator: Adobe Illustrator 25.2.0, SVG Export Plug-In . SVG Version: 6.00 Build 0)  -->
<svg version="1.1" id="Layer_1" xmlns="http://www.w3.org/2000/svg" xmlns:xlink="http://www.w3.org/1999/xlink" x="0px" y="0px"
	 viewBox="0 0 420 513.3" style="enable-background:new 0 0 420 513.3;" xml:space="preserve">
<path d="M402.3,94c-58.6-14.6-113.7-40.7-162-77L224,4.7c-4-3-9-4.7-14-4.7s-10,1.6-14,4.7L179.7,17c-48.3,36.3-103.4,62.4-162,77
	c-5.1,1.3-9.6,4.2-12.8,8.3c-3.2,4.1-4.9,9.2-4.9,14.4v107.8c0.1,42.6,10.1,84.6,29.1,122.7c19,38.1,46.7,71.2,80.7,96.9l86.2,64.7
	c4,3,9,4.7,14,4.7s10-1.6,14-4.7l86.3-64.7c34-25.6,61.6-58.8,80.6-96.9c19-38.1,29-80.1,29.1-122.6V116.7c0-5.2-1.7-10.3-4.9-14.4
	C411.9,98.2,407.4,95.3,402.3,94L402.3,94z M296.5,226.5l-93.3,93.3c-4.4,4.4-10.3,6.8-16.5,6.8s-12.1-2.5-16.5-6.8l-46.7-46.7
	c-5.7-5.9-7.9-14.4-5.7-22.4c2.2-7.9,8.4-14.2,16.3-16.3c7.9-2.2,16.5,0,22.4,5.7l30.2,30.2l76.8-76.8c5.9-5.7,14.4-7.9,22.4-5.7
	c7.9,2.2,14.2,8.4,16.3,16.3C304.4,212.1,302.2,220.6,296.5,226.5L296.5,226.5z"/>
</svg>
