<?xml version="1.0" encoding="utf-8"?>
<!-- Generator: Adobe Illustrator 25.2.0, SVG Export Plug-In . SVG Version: 6.00 Build 0)  -->
<svg version="1.1" id="Layer_1" xmlns="http://www.w3.org/2000/svg" xmlns:xlink="http://www.w3.org/1999/xlink" x="0px" y="0px"
	 viewBox="0 0 497.4 325.1" style="enable-background:new 0 0 497.4 325.1;" xml:space="preserve">
<path d="M482.7,156.6C451,124.5,413,99.3,371.2,82.4l13.6-32.6c2.4-5.8,1.5-12.4-2.3-17.4c-3.8-5-10-7.5-16.2-6.7
	s-11.5,4.9-13.9,10.6l-14.5,35c-23.4-6.4-47.5-10.3-71.8-11.5V17.5c0-6.3-3.3-12-8.8-15.2s-12.1-3.1-17.5,0s-8.8,8.9-8.8,15.2v42.4
	c-24.1,1.3-48,5.1-71.2,11.4l-14.5-35c-2.4-5.8-7.7-9.8-13.9-10.7c-6.2-0.8-12.4,1.8-16.2,6.7c-3.8,5-4.7,11.6-2.3,17.4l13.1,32.7
	c-41.8,16.9-79.8,42.1-111.5,74.2C5.3,166.2,0,179.1,0,192.5s5.3,26.3,14.7,35.9c62.1,62,146.2,96.8,234,96.8s171.9-34.8,234-96.8
	c9.4-9.6,14.7-22.4,14.7-35.9S492.1,166.2,482.7,156.6L482.7,156.6z M35,191.6c0-4.1,1.6-8.1,4.6-11c33.5-33.6,74.6-58.5,119.9-72.6
	c-21.2,22.7-33,52.6-33,83.6s11.8,61,33,83.6c-45.2-14.2-86.4-39.1-119.9-72.6C36.6,199.7,35,195.8,35,191.6L35,191.6z M458.7,202.6
	c-33.5,33.6-74.6,58.5-119.9,72.6c21.2-22.7,33-52.6,33-83.6s-11.8-61-33-83.6c45.2,14.2,86.4,39.1,119.9,72.6
	c2.9,2.9,4.6,6.9,4.6,11S461.6,199.7,458.7,202.6z"/>
</svg>
