<?xml version="1.0" encoding="utf-8"?>
<!-- Generator: Adobe Illustrator 25.2.0, SVG Export Plug-In . SVG Version: 6.00 Build 0)  -->
<svg version="1.1" id="Layer_1" xmlns="http://www.w3.org/2000/svg" xmlns:xlink="http://www.w3.org/1999/xlink" x="0px" y="0px"
	 viewBox="0 0 476.7 284.6" style="enable-background:new 0 0 476.7 284.6;" xml:space="preserve">
<path d="M294.3,142.3c0-2.6-0.2-5.2-0.7-7.8l18.4-18.4c3.2,8.4,4.7,17.3,4.7,26.2c0,20.8-8.3,40.7-23,55.4
	c-14.7,14.7-34.6,23-55.4,23c-8.9,0-17.8-1.6-26.2-4.7l18.4-18.4c2.6,0.5,5.2,0.7,7.8,0.7c14.9,0,29.1-5.9,39.6-16.4
	C288.4,171.4,294.3,157.2,294.3,142.3L294.3,142.3z M465.5,128.2c-24.7-30.9-55.5-56.5-90.5-75l-16.6,16.6
	c34.8,17.4,65.4,42.1,89.6,72.6c-25.1,31.5-57,57-93.3,74.4c-36.3,17.5-76.1,26.5-116.4,26.4c-16.4,0-32.7-1.5-48.8-4.5l-19,19
	c22.2,5.2,45,7.8,67.9,7.8c43.6,0.1,86.7-9.7,126-28.6c39.3-18.9,73.9-46.4,101.1-80.5l11.2-14.1L465.5,128.2z M380.7,15.8
	L111.9,284.6L96,268.8l27.5-27.5h0c-43.9-18.6-82.5-47.7-112.3-84.9L0,142.3l11.2-14.1C38.4,94.1,73,66.6,112.3,47.7
	c39.3-18.9,82.4-28.7,126-28.6c31.3,0,62.4,5.2,92.1,15.3L364.8,0L380.7,15.8z M140.7,224.1l35.1-35.1v0
	c-10.2-13.4-15.8-29.8-15.9-46.7c0-20.8,8.3-40.7,23-55.4c14.7-14.7,34.6-23,55.4-23c16.9,0,33.3,5.6,46.7,15.9l27.6-27.6h0
	C261.7,37.4,207.5,38,156.9,54c-50.6,16-95.2,46.8-128.2,88.3C58.1,179,96.8,207.2,140.7,224.1L140.7,224.1z M191.6,173.2l77.6-77.6
	c-14.5-9.6-32.6-11.9-49-6.3c-16.4,5.6-29.3,18.5-34.9,34.9C179.7,140.6,182,158.7,191.6,173.2L191.6,173.2z"/>
</svg>
