<?xml version="1.0" encoding="utf-8"?>
<!-- Generator: Adobe Illustrator 25.2.0, SVG Export Plug-In . SVG Version: 6.00 Build 0)  -->
<svg version="1.1" id="Layer_1" xmlns="http://www.w3.org/2000/svg" xmlns:xlink="http://www.w3.org/1999/xlink" x="0px" y="0px"
	 viewBox="0 0 410.7 309.1" style="enable-background:new 0 0 410.7 309.1;" xml:space="preserve">
<path d="M205.3,309.1c99.4,0,179.2-107.8,201.3-140.8v0c2.7-4,4.1-8.7,4.1-13.5c0-4.8-1.4-9.5-4.1-13.5C384.6,108.2,304.8,0,205.3,0
	C105.8,0,26.2,108.2,4.1,141.4c-2.7,4-4.1,8.7-4.1,13.5s1.4,9.5,4.1,13.5C26.2,201.4,105.9,309.1,205.3,309.1L205.3,309.1z
	 M205.3,29.2c84,0,157.2,99.2,175.2,125.7C362.5,181.2,289.2,280,205.3,280c-83.9,0-157.2-98.8-175.2-125.2
	C48.2,128.3,121.4,29.2,205.3,29.2z"/>
<path d="M205.3,241.8c23.1,0,45.3-9.2,61.7-25.5c16.4-16.3,25.6-38.5,25.6-61.6c0-23.1-9.2-45.3-25.5-61.7s-38.5-25.6-61.6-25.6
	c-23.1,0-45.3,9.2-61.7,25.5s-25.6,38.5-25.6,61.6c0,23.1,9.2,45.3,25.5,61.6S182.2,241.8,205.3,241.8z M205.3,96.6
	c15.4,0,30.2,6.1,41.1,17c10.9,10.9,17,25.6,17,41c0,15.4-6.1,30.2-17,41c-10.9,10.9-25.6,17-41,17c-15.4,0-30.2-6.1-41-17
	c-10.9-10.9-17-25.7-17-41c0-15.4,6.1-30.2,17-41.1C175.2,102.7,189.9,96.6,205.3,96.6L205.3,96.6z"/>
</svg>
