<?xml version="1.0" encoding="utf-8"?>
<!-- Generator: Adobe Illustrator 25.2.0, SVG Export Plug-In . SVG Version: 6.00 Build 0)  -->
<svg version="1.1" id="Layer_1" xmlns="http://www.w3.org/2000/svg" xmlns:xlink="http://www.w3.org/1999/xlink" x="0px" y="0px"
	 viewBox="0 0 556.9 524.8" style="enable-background:new 0 0 556.9 524.8;" xml:space="preserve">
<path d="M30.8,524.8h495.4c0.6,0,1.1,0,1.7-0.1c17.8-1.9,28.4-13.6,28.4-31.6c0-2.5,0.1-5,0.3-7.4c0.2-2.9,0.4-5.7,0.4-8.6
	c0-41.8-16.5-76.5-49-103.1c-12.4-10.2-25.4-18.6-38.4-25.1c-19.9-9.8-79.9-41.6-98.9-52.1v-26c5.8-10.5,10-21.8,12.5-33.5
	c8.2-5,14.8-17.6,20.9-39.3c6.3-22.3,6.1-36.8-0.6-45.6c-1.8-2.3-3.9-4.2-6.5-5.5c7.4-40.2,3.5-70-11.5-88.8
	c-9.4-11.7-20.9-16.1-28.2-17.7C347.2,14.8,312-5,283.2,1c-7.3,1.5-17.6,2.3-30.7,2.3c-26.5,0-54.9-3.2-55.2-3.3
	c-2.6-0.2-5.3,0.5-7.3,2.3s-3.1,4.3-3.2,6.9c0,7.2,1.9,14.1,5.6,20c-42.1,33-37.8,90.9-32.9,118.2c-2.3,1.3-4.3,3-5.9,5.2
	c-6.7,8.8-6.9,23.3-0.6,45.6c6.2,21.6,13,34.1,21.2,39c2.5,11.7,6.7,22.9,12.5,33.4v25.9c-19.4,10.8-80.4,42.9-99.2,52.1
	c-13.1,6.4-26,14.9-38.4,25.1C16.5,400.6,0,435.2,0,477c0,2.7,0.2,4.9,0.3,7.2c0.2,2.4,0.3,5,0.3,8.8c0,17.9,10.5,29.7,28.5,31.6
	C29.7,524.7,30.2,524.7,30.8,524.8L30.8,524.8z M183.7,221.4c-0.2-0.1-5.6-3.1-12.9-28.1c-6.5-23-2.9-28.6-0.6-29.7
	c2.8,0,5.5-1.3,7.3-3.5s2.4-5.2,1.8-7.9C174.9,133,164,67.9,210.8,39.3c2.6-1.6,4.2-4.3,4.4-7.3c0.3-3-1-5.9-3.3-7.8
	c-1.4-1.2-2.6-2.6-3.6-4.1c11.2,1,27.7,2.1,43.9,2.1c14.4,0,26-0.9,34.5-2.7c23.1-4.8,50.3,14.8,54,31.6c1,4.2,4.7,7.3,9.1,7.3
	c0.1,0,11.8,0.4,20.8,11.6c8.6,10.7,16.5,33.6,6,82c-0.6,2.8,1.2,6,3.1,8.2s5.7,3.6,8.6,3.6c0.4,0.6,4,6.2-2.4,29.2
	c-7,24.9-12.4,28.3-11.9,28.3c-4.2,0.4-7.7,3.5-8.4,7.7c-2.1,12.2-6.3,23.9-12.6,34.7c-0.8,1.4-1.3,3-1.3,4.7v29.2
	c-9.2,6.3-36.3,22.5-73.4,22.5c-37.5,0-64.2-16.2-73.1-22.5v-29.2c0-1.6-0.4-3.3-1.3-4.7c-6.3-10.8-10.5-22.5-12.6-34.7
	C190.8,224.8,187.9,221.7,183.7,221.4L183.7,221.4z M19.3,493c0-4.4-0.2-7.4-0.4-10.1c-0.1-1.9-0.3-3.8-0.3-5.9
	c0-36.4,13.8-65.4,42.1-88.6c11.3-9.3,23.1-16.9,34.9-22.8c19.4-9.5,79.1-41,99.6-52.4c11.4,8,40.9,25.5,83.2,25.5
	c41.9,0,71.9-17.5,83.4-25.4c20.5,11.4,80.3,42.9,99.4,52.3c11.8,5.8,23.5,13.5,34.9,22.8c28,22.9,42.1,52.7,42.1,88.6
	c0,2.5-0.1,5-0.3,7.5c-0.2,2.9-0.4,5.7-0.4,8.6c0,8.4-3.4,12.1-11.7,13c-0.1,0-0.3,0-0.4,0h-494c-0.1,0-0.3,0-0.4,0
	C22.7,505.2,19.3,501.4,19.3,493L19.3,493z"/>
</svg>
