<?xml version="1.0" encoding="utf-8"?>
<!-- Generator: Adobe Illustrator 25.2.0, SVG Export Plug-In . SVG Version: 6.00 Build 0)  -->
<svg version="1.1" id="Layer_1" xmlns="http://www.w3.org/2000/svg" xmlns:xlink="http://www.w3.org/1999/xlink" x="0px" y="0px"
	 viewBox="0 0 455 390.8" style="enable-background:new 0 0 455 390.8;" xml:space="preserve">
<path d="M402.5,46.7H232.7C229.8,20.4,207.7,0,180.8,0H52.5C23.3,0,0,23.3,0,52.5v285.8c0,28.6,23.3,52.5,52.5,52.5h350
	c28.6,0,52.5-23.3,52.5-52.5V99.2C455,70,431.7,46.7,402.5,46.7L402.5,46.7z M11.7,52.5c0-22.8,18.1-40.8,40.8-40.8h128.3
	c20.4,0,37.3,15.2,40.2,35H52.5c-16.3,0-30.9,7.6-40.8,19.2L11.7,52.5z M443.3,338.3c0,22.2-18.1,40.8-40.8,40.8l-350,0
	c-22.2,0-40.8-18.1-40.8-40.8V99.2c0-22.2,18.1-40.8,40.8-40.8h350c22.2,0,40.8,18.1,40.8,40.8L443.3,338.3z M323.7,221.7
	c0,3.5-2.3,5.8-5.8,5.8h-84.6v84.6c0,3.5-2.3,5.8-5.8,5.8s-5.8-2.3-5.8-5.8v-84.6h-84.6c-3.5,0-5.8-2.3-5.8-5.8s2.3-5.8,5.8-5.8
	l84.6,0v-84.6c0-3.5,2.3-5.8,5.8-5.8s5.8,2.3,5.8,5.8v84.6h84.6C321.4,215.8,323.7,218.2,323.7,221.7L323.7,221.7z"/>
</svg>
