<?xml version="1.0" encoding="utf-8"?>
<!-- Generator: Adobe Illustrator 25.2.0, SVG Export Plug-In . SVG Version: 6.00 Build 0)  -->
<svg version="1.1" id="Layer_1" xmlns="http://www.w3.org/2000/svg" xmlns:xlink="http://www.w3.org/1999/xlink" x="0px" y="0px"
	 viewBox="0 0 285.6 324.8" style="enable-background:new 0 0 285.6 324.8;" xml:space="preserve">
<path d="M263.2,30.7l-10.3,268.8c-0.4,10.8-9.6,19.7-20.5,19.7H53.2c-10.9,0-20-8.8-20.5-19.7L22.4,30.7c-0.1-1.5-1.4-2.8-2.9-2.7
	c-1.5,0.1-2.8,1.4-2.7,2.9l10.3,268.8c0.5,13.8,12.2,25.1,26.1,25.1h179.2c13.9,0,25.5-11.2,26.1-25.1l10.3-268.8
	c0.1-1.5-1.1-2.8-2.7-2.9C264.6,27.9,263.3,29.1,263.2,30.7L263.2,30.7z"/>
<path d="M140,86.8v190.4c0,1.5,1.3,2.8,2.8,2.8s2.8-1.3,2.8-2.8V86.8c0-1.5-1.3-2.8-2.8-2.8S140,85.3,140,86.8z"/>
<path d="M78.4,86.9L84,277.3c0,1.5,1.3,2.8,2.9,2.7c1.5,0,2.8-1.3,2.7-2.9L84,86.7c0-1.5-1.3-2.8-2.9-2.7
	C79.6,84,78.4,85.3,78.4,86.9L78.4,86.9z"/>
<path d="M201.6,86.7L196,277.1c0,1.5,1.2,2.8,2.7,2.9c1.5,0,2.8-1.2,2.9-2.7l5.6-190.4c0-1.5-1.2-2.8-2.7-2.9
	C202.9,84,201.6,85.2,201.6,86.7L201.6,86.7z"/>
<path d="M2.8,33.6h280c1.5,0,2.8-1.3,2.8-2.8c0-1.5-1.3-2.8-2.8-2.8H2.8C1.3,28,0,29.3,0,30.8C0,32.3,1.3,33.6,2.8,33.6z"/>
<path d="M89.4,31.8l6-15c2.4-6.1,10-11.3,16.6-11.3h61.6c6.6,0,14.1,5.1,16.6,11.3l6,15l5.2-2.1l-6-15C192.1,6.5,182.5,0,173.6,0
	H112c-8.9,0-18.5,6.5-21.8,14.8l-6,15L89.4,31.8z"/>
</svg>
