<?xml version="1.0" encoding="utf-8"?>
<!-- Generator: Adobe Illustrator 25.2.0, SVG Export Plug-In . SVG Version: 6.00 Build 0)  -->
<svg version="1.1" id="Layer_1" xmlns="http://www.w3.org/2000/svg" xmlns:xlink="http://www.w3.org/1999/xlink" x="0px" y="0px"
	 viewBox="0 0 504 425.8" style="enable-background:new 0 0 504 425.8;" xml:space="preserve">
<path d="M251.3,0c-2.9,0.4-5,2.9-4.9,5.8v289.8l-102.7-92.4c-1.1-1-2.5-1.6-4-1.6c-2.3,0.1-4.2,1.6-4.9,3.8c-0.7,2.1-0.1,4.5,1.6,6
	l112,100.8c2.1,1.8,5.2,1.8,7.4,0l112-100.8c1.4-0.9,2.4-2.3,2.6-4c0.2-1.6-0.3-3.3-1.4-4.5s-2.7-1.9-4.4-1.9
	c-1.7,0.1-3.2,0.8-4.2,2.1l-102.7,92.4V5.8c0.1-1.6-0.6-3.2-1.8-4.3C254.6,0.4,252.9-0.2,251.3,0L251.3,0z M4.9,324.8
	c-2.9,0.4-5,2.9-4.9,5.8v67.2c0,15.4,12.6,28,28,28h448c15.4,0,28-12.6,28-28v-67.2c0-1.5-0.6-2.9-1.6-4c-1.1-1.1-2.5-1.7-4-1.7
	s-2.9,0.6-4,1.7s-1.6,2.5-1.6,4v67.2c0,9.4-7.4,16.8-16.8,16.8H28c-9.4,0-16.8-7.4-16.8-16.8v-67.2c0.1-1.6-0.6-3.2-1.8-4.3
	S6.5,324.6,4.9,324.8L4.9,324.8z"/>
</svg>
