<?xml version="1.0" encoding="utf-8"?>
<!-- Generator: Adobe Illustrator 25.2.0, SVG Export Plug-In . SVG Version: 6.00 Build 0)  -->
<svg version="1.1" id="Layer_1" xmlns="http://www.w3.org/2000/svg" xmlns:xlink="http://www.w3.org/1999/xlink" x="0px" y="0px"
	 viewBox="0 0 557.7 492.5" style="enable-background:new 0 0 557.7 492.5;" xml:space="preserve">
<g>
	<path d="M484,379.9h-98.4c-5.2,0-9.3,4.2-9.3,9.3s4.2,9.3,9.3,9.3H484c5.2,0,9.3-4.2,9.3-9.3S489.1,379.9,484,379.9z"/>
	<path d="M4.1,427.8c4.2,5.8,10.9,9.2,18,9.2h320.7c0.3,0,0.6-0.2,0.9-0.2c17.3,32.9,51.4,55.7,91.1,55.7
		c56.9,0,103.3-46.3,103.3-103.3c0-27.3-10.9-52.1-28.3-70.5c0.1-0.2,0.3-0.4,0.4-0.7l43.4-127c2.7-7.8,4.1-15.6,4.1-23.1
		c0-11.2-3.1-21.4-8.9-29.8c-5.9-8.5-14.3-14.7-24-17.9c-6.2-2.2-13.1-3.4-20.6-3.4h-26.6l0-23.9c0-28.7-23.4-53-51.1-53h-185
		L216.3,8.4C212.2,3.1,205.7,0,199.1,0h-148C22.9,0,0,22.9,0,51.1l0,361.3c0,0.9,0.3,1.8,0.5,2.6C0.5,419.6,1.4,424,4.1,427.8
		L4.1,427.8z M434.8,473.8c-46.6,0-84.6-37.9-84.6-84.6c0-46.6,37.9-84.6,84.6-84.6c46.6,0,84.6,37.9,84.6,84.6
		C519.4,435.9,481.5,473.8,434.8,473.8L434.8,473.8z M518.7,137.8c6.1,2,11.3,5.8,14.9,11c3.6,5.2,5.5,11.8,5.5,19.2
		c0,5.4-1,11.2-3.1,17l-41.3,120.5c-16.9-12.2-37.5-19.5-59.9-19.5c-56.9,0-103.3,46.3-103.3,103.2c0,10.2,1.9,19.8,4.7,29.1H22.1
		c-1.1,0-2.2-0.5-2.8-1.4c-0.6-0.9-0.8-2-0.4-3.1l76-222c5.1-14.9,15.8-29,30.2-39.7c14.4-10.7,30.4-16.6,45-16.6h334.1
		C509.6,135.5,514.3,136.3,518.7,137.8L518.7,137.8z M51.1,18.7h148c1,0,2.1,0.5,2.7,1.3l28.1,35.1c1.8,2.2,4.5,3.5,7.3,3.5h189.5
		c17.3,0,32.5,16.1,32.5,34.3v23.9l-288.9,0c-18.7,0-38.6,7.2-56.2,20.3c-17.4,13-30.5,30.3-36.8,48.7L18.7,356.8V51.1
		C18.7,33.2,33.2,18.7,51.1,18.7L51.1,18.7z"/>
</g>
</svg>
