<?xml version="1.0" encoding="utf-8"?>
<!-- Generator: Adobe Illustrator 25.2.0, SVG Export Plug-In . SVG Version: 6.00 Build 0)  -->
<svg version="1.1" id="Layer_1" xmlns="http://www.w3.org/2000/svg" xmlns:xlink="http://www.w3.org/1999/xlink" x="0px" y="0px"
	 viewBox="0 0 287.7 287.7" style="enable-background:new 0 0 287.7 287.7;" xml:space="preserve">
<style type="text/css">
	.st0{fill:#221F20;}
</style>
<path class="st0" d="M5.6,287.7c-1.4,0-2.9-0.5-4-1.6c-2.2-2.2-2.2-5.7,0-7.9L278.1,1.6c2.2-2.2,5.7-2.2,7.9,0
	c2.2,2.2,2.2,5.7,0,7.9L9.6,286C8.5,287.1,7,287.7,5.6,287.7L5.6,287.7z"/>
<path class="st0" d="M282.1,287.7c-1.4,0-2.9-0.5-4-1.6L1.7,9.6c-2.2-2.2-2.2-5.7,0-7.9c2.2-2.2,5.7-2.2,7.9,0L286,278.1
	c2.2,2.2,2.2,5.7,0,7.9C284.9,287.1,283.5,287.7,282.1,287.7L282.1,287.7z"/>
</svg>
