<?xml version="1.0" encoding="UTF-8"?>
<svg  version="1.1" viewBox="0 0 700 700" xmlns="http://www.w3.org/2000/svg">
 <g>
  <path d="m595.96 153.95c-6.207-2.2617-13.113-3.4062-20.559-3.4062h-26.555l0.003906-23.918c0-28.723-23.426-53.012-51.125-53.012h-184.96l-25.293-31.547c-4.1055-5.1797-10.59-8.3086-17.266-8.3086h-147.96c-28.188 0-51.102 22.914-51.102 51.055l0.003906 361.32c0 0.93359 0.28125 1.7734 0.53516 2.6133 0 4.5273 0.88672 9.0078 3.6172 12.855 4.1758 5.7383 10.875 9.1914 17.941 9.1914h320.69c0.32812 0 0.60547-0.16406 0.93359-0.1875 17.289 32.898 51.402 55.648 91.094 55.648 56.934 0 103.27-46.316 103.27-103.25 0-27.348-10.875-52.059-28.281-70.559 0.09375-0.23437 0.30469-0.39844 0.375-0.65234l43.445-126.98c2.707-7.8398 4.082-15.633 4.082-23.102 0-11.152-3.0586-21.441-8.8672-29.844-5.9688-8.5117-14.367-14.719-24.027-17.914zm-473.71-101.5h147.96c1.0273 0 2.0547 0.48828 2.6836 1.2852l28.094 35.07c1.7734 2.2148 4.457 3.5 7.3047 3.5h189.45c17.289 0 32.457 16.055 32.457 34.348v23.918l-288.92-0.003907c-18.668 0-38.617 7.2344-56.188 20.324-17.43 12.973-30.473 30.285-36.75 48.672l-58.496 170.89v-305.64c0-17.852 14.539-32.363 32.41-32.363zm383.72 455.09c-46.645 0-84.582-37.941-84.582-84.559 0-46.645 37.941-84.582 84.582-84.582 46.645 0 84.582 37.941 84.582 84.582 0 46.617-37.941 84.559-84.582 84.559zm101.17-288.8-41.254 120.49c-16.941-12.156-37.543-19.508-59.922-19.508-56.934 0-103.27 46.316-103.27 103.27 0 10.172 1.9375 19.809 4.6914 29.098h-314.16c-1.0977 0-2.1719-0.53516-2.7773-1.3984-0.62891-0.91016-0.79297-2.0547-0.42188-3.1484l75.996-221.97c5.0664-14.867 15.801-29.008 30.223-39.762 14.352-10.711 30.355-16.59 45.035-16.59h298.13c0.046874 0 0.070312 0.023438 0.11719 0.023438s0.070313-0.023438 0.11719-0.023438h35.77c5.2734 0 10.035 0.74609 14.422 2.3555 6.1133 2.0078 11.246 5.8086 14.863 10.941 3.5938 5.2031 5.4844 11.828 5.4844 19.156-0.003906 5.4141-1.0312 11.156-3.0391 17.059z"/>
  <path d="m534.5 364.54-74.738 74.762c-0.11719 0.11719-0.070312 0.28125-0.16406 0.375-1.0039 1.1211-1.7266 2.4258-1.8672 3.9883l-2.1914 25.898c-0.1875 2.0547 0.55859 4.082 2.0312 5.5312 1.3281 1.3281 3.1016 2.0547 4.9453 2.0547 0.21094 0 0.39844 0 0.58203-0.023437l25.922-2.1914c1.5391-0.14063 2.8477-0.83984 3.9648-1.8438 0.11719-0.09375 0.30469-0.070313 0.39844-0.16406l74.738-74.762c2.7305-2.7305 2.7305-7.1641 0-9.8945l-23.777-23.777c-2.5625-2.6367-7.2539-2.6133-9.8438 0.046875zm-12.32 32.109 13.883 13.883-47.578 47.602-13.883-13.883zm27.09 0.65234-13.883-13.883 4.0586-4.0586 13.883 13.883z"/>
 </g>
</svg>
