<?xml version="1.0" encoding="utf-8"?>
<!-- Generator: Adobe Illustrator 25.2.0, SVG Export Plug-In . SVG Version: 6.00 Build 0)  -->
<svg version="1.1" id="Layer_1" xmlns="http://www.w3.org/2000/svg" xmlns:xlink="http://www.w3.org/1999/xlink" x="0px" y="0px"
	 viewBox="0 0 246.4 392.1" style="enable-background:new 0 0 246.4 392.1;" xml:space="preserve">
<path d="M122.3,0.1c-1,0.2-2,0.7-2.8,1.4L1.9,107.9c-1.2,1.1-1.9,2.6-1.9,4.2v252c0,15.4,12.6,28,28,28h190.4c15.4,0,28-12.6,28-28
	v-252c0-1.6-0.7-3.1-1.9-4.2L126.9,1.5C125.6,0.3,124-0.2,122.3,0.1L122.3,0.1z M123.2,13.2l112,101.3v249.5
	c0,9.4-7.4,16.8-16.8,16.8H28c-9.4,0-16.8-7.4-16.8-16.8V114.5L123.2,13.2z M123.2,72.9c-18.5,0-33.6,15.1-33.6,33.6
	c0,18.5,15.1,33.6,33.6,33.6s33.6-15.1,33.6-33.6C156.8,88,141.7,72.9,123.2,72.9z M123.2,84.1c12.4,0,22.4,10,22.4,22.4
	s-10,22.4-22.4,22.4s-22.4-10-22.4-22.4S110.8,84.1,123.2,84.1L123.2,84.1z M49.3,280.1c-3.1,0.3-5.4,3-5.1,6.1
	c0.3,3.1,3,5.4,6.1,5.1H196c1.5,0,2.9-0.6,4-1.6c1.1-1.1,1.7-2.5,1.7-4c0-1.5-0.6-2.9-1.7-4c-1.1-1.1-2.5-1.6-4-1.6H50.4
	c-0.2,0-0.3,0-0.5,0C49.7,280,49.5,280,49.3,280.1L49.3,280.1z M66.2,324.9c-3.1,0.3-5.4,3-5.1,6.1s3,5.4,6.1,5.1h112
	c1.5,0,2.9-0.6,4-1.6c1.1-1.1,1.7-2.5,1.7-4c0-1.5-0.6-2.9-1.7-4c-1.1-1.1-2.5-1.6-4-1.6h-112c-0.2,0-0.4,0-0.5,0
	C66.5,324.8,66.3,324.8,66.2,324.9L66.2,324.9z"/>
</svg>
