<?xml version="1.0" encoding="utf-8"?>
<!-- Generator: Adobe Illustrator 25.2.0, SVG Export Plug-In . SVG Version: 6.00 Build 0)  -->
<svg version="1.1" id="Layer_1" xmlns="http://www.w3.org/2000/svg" xmlns:xlink="http://www.w3.org/1999/xlink" x="0px" y="0px"
	 viewBox="0 0 437.5 437.8" style="enable-background:new 0 0 437.5 437.8;" xml:space="preserve">
<path d="M437.5,218.7c0.1,47.7-15.5,94.2-44.3,132.2c-28.8,38.1-69.2,65.7-115.2,78.6c-45.9,12.9-94.8,10.5-139.3-6.9
	C94.4,405.2,56.9,373.7,32,333C7.2,292.2-3.7,244.5,1.1,197c4.8-47.5,25-92.1,57.5-127H20.5c-4.8,0-8.7-3.9-8.7-8.8s3.9-8.8,8.7-8.8
	l60.1-0.8h3l1.1,0.7l1.3,0.9l0.4,0.5v0c0,0.2,0,0.5,0,0.7c0.3,0.4,0.6,0.8,0.8,1.2c0,0.3,0,0.5,0,0.8c0.1,0.4,0.1,0.9,0,1.3
	c0.1,0.3,0.1,0.6,0,0.9l5.9,59.8v0c0.5,4.8-3.1,9.1-7.9,9.5h-0.9c-4.5,0-8.3-3.4-8.8-7.9l-4.1-41.7C39.1,111.6,19.3,154.9,15.2,201
	s7.9,92.3,33.9,130.6c26,38.3,64.4,66.5,108.7,79.9c44.4,13.3,91.9,10.9,134.7-6.8c42.8-17.7,78.2-49.6,100.2-90.3
	c22-40.7,29.3-87.8,20.6-133.3c-8.7-45.5-32.8-86.6-68.2-116.4c-35.4-29.8-80.1-46.5-126.4-47.2c-4.8,0-8.8-3.9-8.8-8.8
	s3.9-8.8,8.8-8.8c38.4,0,76.1,10.1,109.4,29.3c33.3,19.2,60.9,46.8,80.1,80.1S437.5,180.4,437.5,218.7L437.5,218.7z M210.6,221.7
	c0.2,0.5,0.5,1,0.8,1.5c0.3,0.5,0.6,1,1,1.4c0.4,0.4,0.9,0.8,1.4,1.1c0.3,0.3,0.6,0.6,1,0.8l88.1,45.6c1.2,0.7,2.6,1,4,1.1
	c4,0,7.6-2.7,8.5-6.7c1-3.9-0.9-8-4.5-9.9l-83.4-43.2V90.9c0-4.8-3.9-8.8-8.8-8.8s-8.8,3.9-8.8,8.8v127.8c0,0.4,0,0.8,0,1.2
	C210.1,220.6,210.3,221.2,210.6,221.7L210.6,221.7z"/>
</svg>
