<?xml version="1.0" encoding="utf-8"?>
<!-- Generator: Adobe Illustrator 25.2.0, SVG Export Plug-In . SVG Version: 6.00 Build 0)  -->
<svg version="1.1" id="Layer_1" xmlns="http://www.w3.org/2000/svg" xmlns:xlink="http://www.w3.org/1999/xlink" x="0px" y="0px"
	 viewBox="0 0 474.2 470.9" style="enable-background:new 0 0 474.2 470.9;" xml:space="preserve">
<path d="M459.7,39.4l-25.3-25.3c-18.8-18.8-51.6-18.8-70.4,0L331.1,47L136.3,241.7c-2.1,2.1-3.5,4.9-3.9,7.9l-12.6,88.5
	c-0.6,4.4,0.8,8.8,3.9,11.9c2.6,2.7,6.2,4.1,9.9,4.1c0.7,0,1.3,0,2-0.1l88.5-12.6c3-0.4,5.8-1.8,7.9-3.9l194.7-194.8l32.9-32.9
	c9.4-9.4,14.6-21.9,14.6-35.2C474.2,61.3,469,48.8,459.7,39.4L459.7,39.4z M215.5,314.3l-65.4,9.4l9.4-65.4L341.1,76.6l56.1,56.1
	L215.5,314.3z M439.8,90l-22.9,22.9l-56.1-56.1l22.9-22.9c8.2-8.3,22.6-8.3,30.8,0l25.3,25.3c4.1,4.1,6.4,9.6,6.4,15.4
	C446.2,80.4,444,85.9,439.8,90z M448,246.9v116.7c0,59.2-48.1,107.3-107.3,107.3H107.3C48.1,470.9,0,422.7,0,363.5V130.2
	C0,71,48.1,22.9,107.3,22.9H224c7.7,0,14,6.3,14,14s-6.3,14-14,14H107.3C63.6,50.9,28,86.5,28,130.2v233.3
	c0,43.8,35.6,79.3,79.3,79.3h233.3c43.8,0,79.3-35.6,79.3-79.3V246.9c0-7.7,6.3-14,14-14S448,239.1,448,246.9L448,246.9z"/>
</svg>
