<?xml version="1.0" encoding="utf-8"?>
<!-- Generator: Adobe Illustrator 25.2.0, SVG Export Plug-In . SVG Version: 6.00 Build 0)  -->
<svg version="1.1" id="Layer_1" xmlns="http://www.w3.org/2000/svg" xmlns:xlink="http://www.w3.org/1999/xlink" x="0px" y="0px"
	 viewBox="0 0 623.1 560" style="enable-background:new 0 0 623.1 560;" xml:space="preserve">
<path d="M124.6,460H0l0.1-6.1C2,339.2,3.7,338.5,73,311c16.7-6.6,37.5-14.9,63.5-27.1l2.6-0.5h44.7l2.6,0.5
	c26.9,12.5,54.3,23.3,81.7,34.3c22.3-9.4,44.4-18.8,66.3-29l2.6-0.5h70.4l2.6,0.5c41,19.2,73.9,32.2,100.2,42.6
	C617.4,374.4,620.1,375.5,623,554l0.2,6H121.4l0.1-6C122,522.8,122.3,491.1,124.6,460L124.6,460z M12,448.1h113.5
	c7.4-75.9,29.7-84.8,108.8-116.2l18-7.2c-23.6-9.3-46.7-18.7-69.8-29.4h-42.3c-25.8,11.9-46.4,20.1-63,26.8
	C16.5,346.1,13.8,347.3,12,448.1L12,448.1z M338.2,300.6c-32.7,15.3-66,28.9-99.6,42.3c-75.5,30-95.4,37.9-101.8,111.6
	c-2.6,31-2.7,62.5-3.4,93.6h477.6c-2.7-164.5-6.4-166-105.2-205.3c-26.1-10.3-58.8-23.3-99.6-42.3L338.2,300.6z"/>
<path d="M372.3,0c69.2,0,114.5,65.6,114.5,130.5S441.6,261,372.3,261s-114.6-65.7-114.6-130.6C257.7,65.6,303,0,372.3,0L372.3,0z
	 M372.3,11.9c-62.7,0-102.7,60.4-102.7,118.6c0,58.3,40,118.7,102.7,118.7c62.6,0,102.6-60.4,102.6-118.7
	C474.9,72.3,434.9,11.9,372.3,11.9L372.3,11.9z"/>
<path d="M161.5,100c45.2,0,74.9,42.6,74.9,85.1c0,42.3-29.7,85-74.9,85s-74.9-42.6-74.9-85S116.3,100,161.5,100L161.5,100z
	 M161.5,111.9c-38.5,0-63,37.4-63,73.2s24.5,73.1,63,73.1c38.5,0,63-37.4,63-73.1C224.5,149.3,200,111.9,161.5,111.9z"/>
</svg>
