<?xml version="1.0" encoding="utf-8"?>
<!-- Generator: Adobe Illustrator 25.2.0, SVG Export Plug-In . SVG Version: 6.00 Build 0)  -->
<svg version="1.1" id="Layer_1" xmlns="http://www.w3.org/2000/svg" xmlns:xlink="http://www.w3.org/1999/xlink" x="0px" y="0px"
	 viewBox="0 0 448.6 448.3" style="enable-background:new 0 0 448.6 448.3;" xml:space="preserve">
<path d="M223.9,0c-2.9,0.4-5,2.9-4.9,5.8v212.8H6.2c-0.4,0-0.7,0-1.1,0c-3.1,0.3-5.4,3-5.1,6.1c0.3,3.1,3,5.4,6.1,5.1H219v212.8
	c0,1.5,0.6,2.9,1.6,4c1.1,1.1,2.5,1.7,4,1.7s2.9-0.6,4-1.7c1.1-1.1,1.6-2.5,1.6-4V229.8H443c1.5,0,2.9-0.6,4-1.6
	c1.1-1.1,1.7-2.5,1.7-4s-0.6-2.9-1.7-4c-1.1-1.1-2.5-1.6-4-1.6H230.2V5.8c0.1-1.6-0.6-3.2-1.8-4.3C227.1,0.4,225.5-0.2,223.9,0
	L223.9,0z"/>
</svg>
