<?xml version="1.0" encoding="utf-8"?>
<!-- Generator: Adobe Illustrator 25.2.0, SVG Export Plug-In . SVG Version: 6.00 Build 0)  -->
<svg version="1.1" id="Layer_1" xmlns="http://www.w3.org/2000/svg" xmlns:xlink="http://www.w3.org/1999/xlink" x="0px" y="0px"
	 viewBox="0 0 352.9 285.5" style="enable-background:new 0 0 352.9 285.5;" xml:space="preserve">
<path d="M27.5,0C12.3,0,0,12,0,27v231.4c0,14.9,12,27,26.7,27h299.4c14.7,0,26.7-12.2,26.7-27l0-183.7c0-14.9-12-26.9-26.7-26.9
	h-63.6L256,25.6C251.6,10.9,236.6,0,221.1,0L27.5,0z M27.5,8.9h193.6c10.9,0,23.1,9.2,26.3,19.4l5.9,19.6H26.7
	c-0.6,0-1.2,0.2-1.9,0.2c-6.2,0.5-11.7,2.8-16.1,6.8V27C8.8,16.9,17,8.9,27.5,8.9L27.5,8.9z M26.7,56.9h299.4
	c10,0,17.8,7.7,17.8,17.9v183.7c0,10.1-7.8,18.2-17.8,18.2l-299.4,0c-10,0-18-8.1-18-18.2l0-183.6v-0.2c0-1.1,0.3-2.2,0.5-3.5v-0.2
	c0.3-1.1,0.6-2.2,0.9-3.3v-0.2c2.3-5.4,7.3-9.2,13.4-10.4C24.7,57.1,25.6,56.9,26.7,56.9L26.7,56.9z"/>
</svg>
