<?xml version="1.0" encoding="utf-8"?>
<!-- Generator: Adobe Illustrator 25.2.0, SVG Export Plug-In . SVG Version: 6.00 Build 0)  -->
<svg version="1.1" id="Layer_1" xmlns="http://www.w3.org/2000/svg" xmlns:xlink="http://www.w3.org/1999/xlink" x="0px" y="0px"
	 viewBox="0 0 339.4 339.4" style="enable-background:new 0 0 339.4 339.4;" xml:space="preserve">
<path d="M171.4,0H56C25.2,0,0,25.2,0,56v115.4c0,30.8,25.2,56,56,56h115.4c30.8,0,56-25.2,56-56V56C227.4,25.2,202.2,0,171.4,0z
	 M205,171.4c0,18.5-15.1,33.6-33.6,33.6H56c-18.5,0-33.6-15.1-33.6-33.6V56c0-18.5,15.1-33.6,33.6-33.6h115.4
	c18.5,0,33.6,15.1,33.6,33.6V171.4z"/>
<path d="M283.4,317H168c-18.5,0-33.6-15.1-33.6-33.6V261H112v22.4c0,30.8,25.2,56,56,56h115.4c30.8,0,56-25.2,56-56V168
	c0-30.8-25.2-56-56-56H261v22.4h22.4c18.5,0,33.6,15.1,33.6,33.6v115.4C317,301.8,301.8,317,283.4,317L283.4,317z"/>
</svg>
