<?xml version="1.0" encoding="utf-8"?>
<!-- Generator: Adobe Illustrator 25.2.0, SVG Export Plug-In . SVG Version: 6.00 Build 0)  -->
<svg version="1.1" id="Layer_1" xmlns="http://www.w3.org/2000/svg" xmlns:xlink="http://www.w3.org/1999/xlink" x="0px" y="0px"
	 viewBox="0 0 391.6 509.7" style="enable-background:new 0 0 391.6 509.7;" xml:space="preserve">
<path d="M325.9,509.7H65.6C29.4,509.7,0,480.2,0,444.1V115.9c0-36.2,29.4-65.6,65.6-65.6h48.1c1.8,0,3.3,1.5,3.3,3.3v38.3h157.5
	V53.6c0-1.8,1.5-3.3,3.3-3.3h48.1c36.2,0,65.6,29.4,65.6,65.6v328.1C391.6,480.2,362.1,509.7,325.9,509.7L325.9,509.7z M65.6,56.9
	c-32.6,0-59.1,26.5-59.1,59.1v328.1c0,32.6,26.5,59.1,59.1,59.1h260.3c32.6,0,59.1-26.5,59.1-59.1V115.9c0-32.6-26.5-59.1-59.1-59.1
	h-44.8v38.3c0,1.8-1.5,3.3-3.3,3.3H113.7c-1.8,0-3.3-1.5-3.3-3.3V56.9L65.6,56.9z"/>
<path d="M183.7,161.9H61.2c-1.8,0-3.3-1.5-3.3-3.3s1.5-3.3,3.3-3.3h122.5c1.8,0,3.3,1.5,3.3,3.3S185.6,161.9,183.7,161.9z"/>
<path d="M183.7,192.5H61.2c-1.8,0-3.3-1.5-3.3-3.3s1.5-3.3,3.3-3.3h122.5c1.8,0,3.3,1.5,3.3,3.3S185.6,192.5,183.7,192.5z"/>
<path d="M330.3,223.1H61.3c-1.8,0-3.3-1.5-3.3-3.3s1.5-3.3,3.3-3.3h269.1c1.8,0,3.3,1.5,3.3,3.3S332.1,223.1,330.3,223.1z"/>
<path d="M330.3,254.8H61.3c-1.8,0-3.3-1.5-3.3-3.3s1.5-3.3,3.3-3.3h269.1c1.8,0,3.3,1.5,3.3,3.3S332.1,254.8,330.3,254.8z"/>
<path d="M277.8,98.4H113.8c-1.8,0-3.3-1.5-3.3-3.3v-58c0-1.8,1.5-3.3,3.3-3.3h45c1.7-19,17.6-33.9,37-33.9s35.4,14.9,37,33.9h45
	c1.8,0,3.3,1.5,3.3,3.3v58C281.1,97,279.6,98.4,277.8,98.4L277.8,98.4z M117,91.9h157.5V40.5h-44.8c-1.8,0-3.3-1.5-3.3-3.3
	c0-16.9-13.7-30.6-30.6-30.6s-30.6,13.7-30.6,30.6c0,1.8-1.5,3.3-3.3,3.3H117L117,91.9z"/>
<path d="M205.6,311.7H61.2c-1.8,0-3.3-1.5-3.3-3.3s1.5-3.3,3.3-3.3h144.4c1.8,0,3.3,1.5,3.3,3.3S207.4,311.7,205.6,311.7z"/>
<path d="M248.3,342.3h-187c-1.8,0-3.3-1.5-3.3-3.3s1.5-3.3,3.3-3.3h187c1.8,0,3.3,1.5,3.3,3.3S250.1,342.3,248.3,342.3z"/>
<path d="M330.3,399.2H145.5c-1.8,0-3.3-1.5-3.3-3.3s1.5-3.3,3.3-3.3h184.8c1.8,0,3.3,1.5,3.3,3.3S332.1,399.2,330.3,399.2z"/>
<path d="M330.3,429.8H61.3c-1.8,0-3.3-1.5-3.3-3.3s1.5-3.3,3.3-3.3h269.1c1.8,0,3.3,1.5,3.3,3.3S332.1,429.8,330.3,429.8z"/>
<path d="M195.8,76.6c-9.2,0-16.4-7.7-16.4-17.5c0-7.9,6.6-16.4,16.4-16.4s16.4,8.5,16.4,16.4C212.2,68.9,205,76.6,195.8,76.6z
	 M195.8,49.2c-5.9,0-9.8,5.1-9.8,9.8c0,6.1,4.3,10.9,9.8,10.9c5.5,0,9.8-4.8,9.8-10.9C205.6,54.3,201.7,49.2,195.8,49.2z"/>
</svg>
