<?xml version="1.0" encoding="utf-8"?>
<!-- Generator: Adobe Illustrator 25.2.0, SVG Export Plug-In . SVG Version: 6.00 Build 0)  -->
<svg version="1.1" id="Layer_1" xmlns="http://www.w3.org/2000/svg" xmlns:xlink="http://www.w3.org/1999/xlink" x="0px" y="0px"
	 viewBox="0 0 504 504" style="enable-background:new 0 0 504 504;" xml:space="preserve">
<path d="M196.5,0c-32.3,0-58.6,26.3-58.6,58.6c0,12,4.9,19.7,9,25.5c4,5.7,6.9,9.3,6.9,16.9c0,3.8-0.8,5.9-1.7,7.1
	c-0.8,1.2-1.9,1.9-3.7,2.4c-3.6,1.1-9.8,0.8-15.5,0.8H32.3c-17.7,0-32.1,14.4-32.1,32.1V244c0,4.8-0.9,11.9,1.3,18.9
	c1.1,3.5,3.2,7,6.7,9.5s8.1,3.7,13.5,3.7c10.8,0,17.8-5.1,23.4-9c5.6-3.9,9.8-6.9,19-6.9c26.2,0,47.4,21.1,47.4,47.4
	c0,26.2-21.1,47.3-47.4,47.3c-9.2,0-13.5-3-19-6.9c-5.6-3.9-12.5-9-23.4-9c-5.4,0-10,1.2-13.5,3.7c-3.5,2.5-5.6,6-6.7,9.5
	c-2.2,7-1.3,14.1-1.3,18.9v100.7c0,17.7,14.4,32.1,32.1,32.1h100.7c4.8,0,11.9,0.9,18.9-1.3c3.5-1.1,7-3.2,9.5-6.7
	c2.5-3.5,3.7-8.1,3.7-13.5c0-10.8-5.1-17.8-9-23.4c-3.9-5.6-6.9-9.8-6.9-19c0-26.2,21.2-47.4,47.4-47.4c26.2,0,47.4,21.1,47.4,47.4
	c0,9.2-3,13.4-6.9,19c-3.9,5.6-9,12.6-9,23.4c0,5.4,1.2,10,3.6,13.5c2.5,3.5,6.1,5.6,9.6,6.7c7,2.2,14,1.3,18.9,1.3h100.6
	c17.7,0,32.1-14.4,32.1-32.1l0-100.6c0-0.2,0-0.4,0-0.6c0-5.6-0.3-11.4,0.8-14.9c0.6-1.8,1.3-2.9,2.5-3.7s3.2-1.6,7-1.6
	c7.6,0,11.2,2.9,17,6.9c5.7,4,13.5,9,25.5,9c32.3,0,58.5-26.3,58.5-58.5S477.7,249,445.4,249c-12,0-19.7,4.9-25.5,9
	c-5.7,4-9.3,6.9-17,6.9c-3.8,0-5.8-0.8-7-1.6c-1.2-0.8-1.9-1.9-2.5-3.7c-1.1-3.5-0.8-9.4-0.8-14.9c0-0.2,0-0.4,0-0.6V143.3
	c0-17.7-14.4-32.1-32.1-32.1l-100.6,0c-5.7,0-11.9,0.4-15.5-0.8c-1.8-0.6-2.9-1.2-3.7-2.4c-0.8-1.2-1.6-3.3-1.6-7.1
	c0-7.6,2.9-11.2,6.9-16.9c4-5.7,9-13.5,9-25.5C255,26.3,228.7,0,196.5,0L196.5,0z M196.5,11.2c26.2,0,47.4,21.1,47.4,47.4
	c0,9.2-3,13.5-6.9,19c-3.9,5.6-9,12.5-9,23.4c0,5.4,1.2,10,3.6,13.5c2.5,3.5,6.1,5.7,9.6,6.8c7,2.2,14,1.3,18.9,1.3h100.6
	c11.7,0,20.9,9.2,20.9,20.9V244c0,4.8-0.9,11.9,1.3,18.9c1.1,3.5,3.2,7,6.7,9.5c3.5,2.5,8.1,3.7,13.5,3.7c10.8,0,17.8-5.1,23.4-9
	c5.6-3.9,9.8-6.9,19-6.9c26.2,0,47.3,21.1,47.3,47.4c0,26.2-21.1,47.3-47.3,47.3c-9.2,0-13.5-3-19-6.9c-5.6-3.9-12.6-9-23.4-9
	c-5.4,0-10,1.2-13.5,3.7c-3.5,2.5-5.6,6-6.7,9.5c-2.2,7-1.3,14.1-1.3,18.9v100.7c0,11.7-9.3,20.9-20.9,20.9H260
	c-5.7,0-11.9,0.4-15.5-0.8c-1.8-0.6-2.9-1.3-3.7-2.5c-0.8-1.2-1.6-3.2-1.6-7c0-7.6,2.9-11.2,6.9-16.9c4-5.7,9-13.4,9-25.4
	c0-32.3-26.3-58.6-58.6-58.6s-58.6,26.3-58.6,58.6c0,12,4.9,19.7,9,25.4c4,5.7,6.9,9.3,6.9,16.9c0,3.8-0.8,5.8-1.7,7
	c-0.8,1.2-1.9,1.9-3.7,2.5c-3.6,1.1-9.8,0.8-15.5,0.8H32.3c-11.7,0-20.9-9.2-20.9-20.9V371.1c0-5.7-0.4-11.9,0.7-15.6
	c0.6-1.8,1.3-2.9,2.5-3.7s3.3-1.6,7.1-1.6c7.6,0,11.2,2.9,16.9,6.9c5.7,4,13.5,9,25.5,9c32.3,0,58.6-26.3,58.6-58.5
	S96.3,249,64.1,249c-12,0-19.7,4.9-25.5,9c-5.7,4-9.3,6.9-16.9,6.9c-3.8,0-5.9-0.8-7.1-1.6c-1.2-0.8-1.9-1.9-2.5-3.7
	c-1.1-3.6-0.7-9.8-0.7-15.5V143.3c0-11.7,9.2-20.9,20.9-20.9h100.7c4.8,0,11.9,0.9,18.9-1.3c3.5-1.1,7-3.2,9.5-6.8
	c2.5-3.5,3.7-8.1,3.7-13.5c0-10.8-5.1-17.8-9-23.4s-6.9-9.8-6.9-19C149.1,32.3,170.2,11.2,196.5,11.2L196.5,11.2z"/>
</svg>
