<?xml version="1.0" encoding="utf-8"?>
<!-- Generator: Adobe Illustrator 25.2.0, SVG Export Plug-In . SVG Version: 6.00 Build 0)  -->
<svg version="1.1" id="Layer_1" xmlns="http://www.w3.org/2000/svg" xmlns:xlink="http://www.w3.org/1999/xlink" x="0px" y="0px"
	 viewBox="0 0 495.7 399.3" style="enable-background:new 0 0 495.7 399.3;" xml:space="preserve">
<path d="M479.9,76.1c-10.2-10.3-20.7-14.8-35-14.8H269.9c-9.4,0-32-9.7-37.7-16.2l-12.9-14.7C203.6,12.8,175,0,151.3,0H54.7
	C24.7,0,0.3,24.2,0.3,54L0,344.9c0,31,21.9,54.3,51,54.3h394c29.9,0,50.8-20.9,50.8-50.8V112.1C495.7,98.5,490.7,87,479.9,76.1
	L479.9,76.1z M481.7,348.5c0,22-14.8,36.8-36.8,36.8H51c-21.1,0-37-17.3-37-40.3L14.3,54c0-22.1,18.1-40,40.5-40h96.6
	c19.4,0,44.6,11.3,57.4,25.7l12.9,14.7c8.9,10.1,36,20.9,48.2,20.9H445c10.6,0,17.4,2.9,25,10.6c8.3,8.4,11.8,16.2,11.8,26.2
	L481.7,348.5L481.7,348.5z M428.4,224.3H303.2c-3.9,0-7,3.1-7,7s3.1,7,7,7h125.2c3.9,0,7-3.1,7-7
	C435.4,227.5,432.3,224.3,428.4,224.3z M428.4,273.4H290.9c-3.9,0-7,3.1-7,7s3.1,7,7,7h137.5c3.9,0,7-3.1,7-7
	C435.4,276.5,432.3,273.4,428.4,273.4L428.4,273.4z M428.4,322.5H266.4c-3.9,0-7,3.1-7,7s3.1,7,7,7h162.1c3.9,0,7-3.1,7-7
	S432.3,322.5,428.4,322.5z"/>
</svg>
