<?xml version="1.0" encoding="utf-8"?>
<!-- Generator: Adobe Illustrator 25.2.0, SVG Export Plug-In . SVG Version: 6.00 Build 0)  -->
<svg version="1.1" id="Layer_1" xmlns="http://www.w3.org/2000/svg" xmlns:xlink="http://www.w3.org/1999/xlink" x="0px" y="0px"
	 viewBox="0 0 380.8 470.4" style="enable-background:new 0 0 380.8 470.4;" xml:space="preserve">
<path d="M186.5,401.8l-95.2-89.6c-2.3-2.2-2.3-5.9-0.3-8c2.1-2.1,5.8-2.3,8-0.3l85.8,80.7V5.6c0-3.1,2.5-5.6,5.6-5.6
	s5.6,2.5,5.6,5.6v379l85.7-80.7c2.2-2,5.9-1.9,8,0.3c2,2.2,2.1,5.6-0.3,8l-95.2,89.6C191.6,403.9,188.4,403.4,186.5,401.8
	L186.5,401.8z"/>
<path d="M4.9,347.2c-2.9,0.4-5,2.9-4.9,5.8v111.8c0,3.1,2.5,5.6,5.6,5.6h369.6c3.1,0,5.6-2.5,5.6-5.6V353c0-1.5-0.6-2.9-1.6-4
	c-1.1-1.1-2.5-1.7-4-1.7c-1.5,0-2.9,0.6-4,1.7c-1.1,1.1-1.6,2.5-1.6,4v106.2H11.2V353c0.1-1.6-0.6-3.2-1.8-4.3
	C8.2,347.6,6.5,347,4.9,347.2L4.9,347.2z"/>
</svg>
