<?xml version="1.0" encoding="utf-8"?>
<!-- Generator: Adobe Illustrator 25.2.0, SVG Export Plug-In . SVG Version: 6.00 Build 0)  -->
<svg version="1.1" id="Layer_1" xmlns="http://www.w3.org/2000/svg" xmlns:xlink="http://www.w3.org/1999/xlink" x="0px" y="0px"
	 viewBox="0 0 426 518" style="enable-background:new 0 0 426 518;" xml:space="preserve">
<path d="M213,518c-0.5,0-0.9-0.1-1.3-0.3C81.1,453.8,0,337.7,0,214.9V75.6c0-1.3,0.8-2.4,2-2.8L212,0.2c0.6-0.2,1.3-0.2,2,0
	l210,72.6c1.2,0.4,2,1.6,2,2.8v139.3c0,122.8-81.1,238.8-211.7,302.8C213.9,517.9,213.5,518,213,518L213,518z M6,77.8V215
	C6,335,85.3,448.6,213,511.7C340.7,448.6,420,335,420,215V77.8L213,6.2L6,77.8z"/>
<path d="M296.7,401.7H129.4c-13.5,0-24.4-10.5-24.4-23.3V238.8c0-1.7,1.3-3,3-3h210.1c1.7,0,3,1.3,3,3v139.5
	C321.1,391.2,310.1,401.7,296.7,401.7L296.7,401.7z M110.9,241.8v136.5c0,9.6,8.3,17.3,18.4,17.3h167.3c10.1,0,18.4-7.8,18.4-17.3
	V241.8H110.9z"/>
<path d="M285.7,241.8H140.3c-1.7,0-3-1.3-3-3v-64.5c0-41.7,33.9-75.7,75.7-75.7s75.7,33.9,75.7,75.7v64.5
	C288.7,240.5,287.3,241.8,285.7,241.8z M143.3,235.8h139.3v-61.5c0-38.4-31.2-69.7-69.7-69.7s-69.7,31.2-69.7,69.7V235.8z"/>
<path d="M239.7,364.1h-51.2c-0.9,0-1.8-0.4-2.4-1.1c-0.6-0.7-0.8-1.7-0.6-2.6l7.8-31.9c-8.6-6.5-13.6-16.6-13.6-27.4
	c0-18.9,15.4-34.3,34.3-34.3c18.9,0,34.3,15.4,34.3,34.3c0,10.8-5.1,20.9-13.6,27.4l7.8,31.9c0.2,0.9,0,1.8-0.6,2.6
	C241.5,363.7,240.6,364.1,239.7,364.1L239.7,364.1z M192.3,358.1h43.5l-7.4-30.1c-0.3-1.2,0.2-2.5,1.3-3.2
	c8-5.3,12.7-14.1,12.7-23.6c0-15.6-12.7-28.3-28.3-28.3c-15.6,0-28.3,12.7-28.3,28.3c0,9.5,4.7,18.3,12.7,23.6
	c1.1,0.7,1.6,2,1.3,3.2L192.3,358.1z"/>
</svg>
