<?xml version="1.0" encoding="utf-8"?>
<!-- Generator: Adobe Illustrator 25.2.0, SVG Export Plug-In . SVG Version: 6.00 Build 0)  -->
<svg version="1.1" id="Layer_1" xmlns="http://www.w3.org/2000/svg" xmlns:xlink="http://www.w3.org/1999/xlink" x="0px" y="0px"
	 viewBox="0 0 472.5 472.5" style="enable-background:new 0 0 472.5 472.5;" xml:space="preserve">
<g>
	<path d="M42.3,472.5h335.4c11.2,0,22-4.5,29.9-12.4c7.9-7.9,12.4-18.7,12.4-29.9V323.8c0-4.8-3.9-8.8-8.8-8.8s-8.8,3.9-8.8,8.8
		v106.5c0,6.6-2.6,12.9-7.3,17.5c-4.6,4.7-10.9,7.3-17.5,7.3H42.3c-6.6,0-12.9-2.6-17.5-7.3c-4.7-4.6-7.3-10.9-7.3-17.5V94.8
		c0-6.6,2.6-12.9,7.3-17.5c4.6-4.7,10.9-7.3,17.5-7.3H210c4.8,0,8.8-3.9,8.8-8.7s-3.9-8.8-8.8-8.8H42.3c-11.2,0-22,4.5-29.9,12.4
		C4.5,72.8,0,83.6,0,94.8v335.4c0,11.2,4.5,22,12.4,29.9C20.3,468,31.1,472.5,42.3,472.5L42.3,472.5z"/>
	<path d="M312.4,2.6c-2.5-2.5-6.3-3.2-9.5-1.9c-3.3,1.4-5.4,4.5-5.4,8.1v96.1c-42.3,0.2-83.7,12.9-118.7,36.7
		c-88.5,61.4-91.2,170-91.3,182.2c0,3.9,2.6,7.4,6.4,8.5c0.8,0.2,1.5,0.3,2.3,0.3c3.1,0,6-1.6,7.5-4.3
		c14.2-25.2,33.4-47.1,56.5-64.5c23.1-17.4,49.5-29.7,77.6-36.4c19.7-3.7,39.8-4.1,59.6-1.2v97.6c0,3.5,2.1,6.7,5.4,8.1
		c3.3,1.4,7,0.6,9.5-1.9l157.5-157.4c3.4-3.4,3.4-9,0-12.4L312.4,2.6z M315,302.6v-83.9c0-4.2-3-7.8-7.2-8.6
		c-12.2-2.3-24.5-3.4-36.9-3.4c-12.2,0-24.3,1.2-36.3,3.4c-50.5,10.9-95.4,39.6-126.5,80.9c3.8-26.8,12.8-52.5,26.7-75.7
		c13.8-23.2,32.2-43.4,54-59.4c34.5-23.3,75.6-35,117.2-33.4c2.4,0.1,4.7-0.8,6.4-2.5c1.7-1.6,2.7-3.9,2.7-6.3V29.9l136.4,136.4
		L315,302.6z"/>
</g>
</svg>
